<svg width="300" height="500" viewBox="0 0 300 500" fill="none" xmlns="http://www.w3.org/2000/svg">
<rect width="300" height="500" fill="white"/>
<path d="M214.841 315.103C179.961 337.261 123.412 337.261 88.5332 315.103C53.654 292.945 53.654 257.023 88.5332 234.865C123.412 212.708 179.961 212.713 214.841 234.865C249.72 257.018 249.72 292.945 214.841 315.103Z" fill="#F5F5F5"/>
<path d="M75.2441 259.996C75.1994 256.872 73.1587 250.399 70.3052 246.384C67.4518 242.369 63.0176 239.479 59.9186 240.776C57.0339 241.994 57.4134 246.426 60.9813 249.3C64.5492 252.175 69.9123 255.763 71.5243 260.819L74.869 266.995L75.2441 259.996Z" fill="#0084FF"/>
<path opacity="0.1" d="M75.2441 259.996C75.1994 256.872 73.1587 250.399 70.3052 246.384C67.4518 242.369 63.0176 239.479 59.9186 240.776C57.0339 241.994 57.4134 246.426 60.9813 249.3C64.5492 252.175 69.9123 255.763 71.5243 260.819L74.869 266.995L75.2441 259.996Z" fill="black"/>
<path d="M75.5076 264.282C75.4654 264.279 75.4253 264.26 75.3931 264.228C75.361 264.196 75.3385 264.153 75.3289 264.105C73.3686 253.43 65.8085 244.879 61.3341 243.046C61.285 243.026 61.2447 242.984 61.2221 242.929C61.1995 242.874 61.1965 242.812 61.2136 242.754C61.2216 242.725 61.2345 242.699 61.2516 242.676C61.2686 242.653 61.2895 242.635 61.3128 242.622C61.3362 242.608 61.3616 242.601 61.3875 242.6C61.4135 242.598 61.4393 242.603 61.4636 242.614C66.0229 244.478 73.7214 253.174 75.713 264.006C75.7236 264.065 75.7135 264.127 75.6851 264.178C75.6566 264.229 75.612 264.264 75.5612 264.277L75.5076 264.282Z" fill="white"/>
<path d="M74.2618 271.166C73.8153 269.411 71.913 266.537 68.9033 264.193C65.5586 261.59 61.3566 260.465 60.3608 258.418C59.1685 255.955 60.9279 253.57 64.3306 253.992C67.7333 254.414 73.7796 259.689 74.8558 267.802L74.2618 271.166Z" fill="#0084FF"/>
<path d="M74.869 269.302C74.8312 269.299 74.7951 269.283 74.765 269.256C74.7349 269.229 74.7121 269.193 74.6993 269.151C71.7476 260.043 65.6969 256.919 62.9104 256.575C62.8846 256.572 62.8595 256.563 62.8367 256.548C62.8139 256.533 62.7938 256.514 62.7776 256.49C62.7614 256.466 62.7494 256.439 62.7423 256.41C62.7352 256.381 62.7332 256.35 62.7363 256.32C62.739 256.29 62.7469 256.261 62.7595 256.235C62.7721 256.208 62.7891 256.185 62.8095 256.167C62.83 256.148 62.8534 256.135 62.8784 256.127C62.9034 256.119 62.9295 256.118 62.9551 256.122C66.0363 256.523 72.0513 259.684 75.0654 268.99C75.0755 269.018 75.0805 269.048 75.0803 269.078C75.0801 269.108 75.0746 269.138 75.0641 269.166C75.0537 269.194 75.0385 269.219 75.0196 269.239C75.0006 269.26 74.9782 269.276 74.9538 269.287C74.9265 269.297 74.8978 269.303 74.869 269.302V269.302Z" fill="white"/>
<path d="M221.395 255.459C221.395 255.459 221.082 250.064 222.69 245.476C224.297 240.888 226.999 237.664 229.834 236.784C232.67 235.904 235.506 238.503 232.746 241.294C229.986 244.085 224.833 247.434 223.556 255.943L221.395 255.459Z" fill="#0084FF"/>
<path opacity="0.15" d="M221.395 255.459C221.395 255.459 221.082 250.064 222.69 245.476C224.297 240.888 226.999 237.664 229.834 236.784C232.67 235.904 235.506 238.503 232.746 241.294C229.986 244.085 224.833 247.434 223.556 255.943L221.395 255.459Z" fill="black"/>
<path d="M222.042 253.896H222.011C221.97 253.886 221.935 253.858 221.912 253.819C221.888 253.779 221.879 253.73 221.886 253.683C223.56 244.268 228.794 239.367 231.33 238.092C231.368 238.072 231.411 238.071 231.45 238.089C231.488 238.107 231.519 238.141 231.536 238.185C231.552 238.229 231.553 238.28 231.538 238.324C231.523 238.369 231.493 238.405 231.455 238.425C228.972 239.675 223.864 244.486 222.194 253.756C222.186 253.796 222.166 253.831 222.139 253.857C222.111 253.882 222.077 253.896 222.042 253.896V253.896Z" fill="white"/>
<path d="M235.903 250.881C235.738 251.673 235.113 252.199 234.523 252.636C233.934 253.074 233.295 253.542 233.058 254.308C232.585 255.87 234.032 257.573 233.505 259.093C233.374 259.402 233.19 259.677 232.965 259.901C232.74 260.124 232.479 260.293 232.197 260.395C231.732 260.577 231.259 260.729 230.781 260.854C230.551 260.899 230.318 260.927 230.084 260.937C229.391 260.908 228.709 261.144 228.142 261.609C227.285 262.437 227.213 263.9 226.802 265.108C226.545 265.822 226.157 266.463 225.667 266.986C225.177 267.509 224.595 267.903 223.962 268.139C223.543 268.295 222.761 268.555 222.283 268.368L222.181 268.321C222.109 268.259 222.02 268.17 221.975 268.123V268.097C221.694 267.405 221.85 266.592 221.743 265.842C221.745 265.797 221.745 265.752 221.743 265.707C221.578 264.842 221.421 263.983 221.265 263.103C220.979 261.515 220.716 259.916 220.47 258.317C220.318 257.276 220.024 256.162 220.256 255.104C220.502 253.938 221.538 253.693 221.761 252.553C221.855 252.1 221.868 251.631 221.953 251.173C222.09 250.499 222.384 249.883 222.801 249.391C223.219 248.899 223.744 248.55 224.32 248.382C226.106 247.887 228.008 249.251 229.79 248.71C230.236 248.564 230.683 248.303 231.129 248.106C232.545 247.47 234.318 247.585 235.367 248.866C235.591 249.125 235.757 249.444 235.851 249.796C235.944 250.147 235.962 250.52 235.903 250.881Z" fill="#0084FF"/>
<g opacity="0.07">
<path opacity="0.07" d="M235.903 250.881C235.738 251.673 235.113 252.199 234.523 252.636C233.934 253.074 233.295 253.542 233.058 254.308C232.585 255.87 234.032 257.573 233.505 259.093C233.374 259.402 233.19 259.677 232.965 259.901C232.74 260.124 232.479 260.293 232.197 260.395C231.739 260.602 231.265 260.756 230.781 260.854C230.551 260.899 230.318 260.927 230.084 260.937C229.391 260.908 228.709 261.144 228.142 261.609C227.285 262.437 227.213 263.9 226.802 265.108C226.545 265.822 226.157 266.463 225.667 266.986C225.177 267.509 224.595 267.903 223.962 268.139C223.543 268.295 222.761 268.555 222.283 268.368L222.181 268.321C222.152 268.307 222.125 268.29 222.1 268.269C222.052 268.229 222.01 268.179 221.975 268.123V268.097C221.64 267.55 221.819 266.498 221.743 265.842C221.745 265.797 221.745 265.752 221.743 265.707C221.578 264.842 221.421 263.983 221.265 263.103C220.979 261.515 220.716 259.916 220.47 258.317C220.318 257.276 220.024 256.162 220.256 255.104C220.502 253.938 221.538 253.693 221.761 252.553C221.855 252.1 221.868 251.631 221.953 251.173C222.09 250.499 222.384 249.883 222.801 249.391C223.219 248.899 223.744 248.55 224.32 248.382C226.106 247.887 228.008 249.251 229.79 248.71C230.236 248.564 230.683 248.303 231.129 248.106C232.545 247.47 234.318 247.585 235.367 248.866C235.591 249.125 235.757 249.444 235.851 249.796C235.944 250.147 235.962 250.52 235.903 250.881Z" fill="#263238"/>
</g>
<path d="M221.274 264.79C221.233 264.785 221.196 264.762 221.169 264.725C221.142 264.688 221.129 264.641 221.131 264.592C221.913 253.11 231.554 249.418 233.898 249.116C233.939 249.111 233.981 249.126 234.013 249.156C234.046 249.186 234.067 249.229 234.072 249.277C234.075 249.301 234.073 249.325 234.068 249.349C234.062 249.372 234.052 249.394 234.04 249.413C234.027 249.431 234.011 249.447 233.993 249.459C233.974 249.47 233.954 249.478 233.934 249.48C231.639 249.772 222.208 253.391 221.431 264.624C221.427 264.669 221.409 264.712 221.38 264.743C221.351 264.773 221.314 264.791 221.274 264.79V264.79Z" fill="white"/>
<path d="M231.393 256.895C231.361 256.896 231.33 256.885 231.303 256.864C230.245 256.136 229.062 255.689 227.839 255.555C226.615 255.421 225.382 255.603 224.226 256.088C224.206 256.098 224.185 256.102 224.164 256.102C224.142 256.102 224.121 256.096 224.102 256.086C224.083 256.076 224.065 256.061 224.051 256.043C224.037 256.025 224.026 256.003 224.019 255.98C224.012 255.956 224.009 255.932 224.01 255.907C224.012 255.882 224.018 255.858 224.027 255.836C224.037 255.814 224.051 255.794 224.067 255.779C224.084 255.763 224.103 255.751 224.123 255.745C225.325 255.239 226.609 255.051 227.881 255.192C229.153 255.333 230.383 255.801 231.482 256.562C231.499 256.576 231.514 256.593 231.525 256.614C231.537 256.634 231.544 256.657 231.547 256.681C231.551 256.705 231.55 256.729 231.545 256.753C231.54 256.776 231.531 256.798 231.518 256.817C231.505 256.842 231.486 256.862 231.464 256.876C231.442 256.889 231.418 256.896 231.393 256.895Z" fill="white"/>
<path d="M151.603 194.054C152.035 193.524 152.244 192.847 152.187 192.166C152.13 191.484 151.811 190.852 151.297 190.401C150.783 189.95 150.114 189.716 149.431 189.749C148.748 189.782 148.104 190.078 147.635 190.576C147.635 190.31 147.677 190.055 147.677 189.763C147.676 188.361 147.308 186.983 146.609 185.767C145.91 184.551 144.905 183.539 143.693 182.832C142.482 182.125 141.106 181.748 139.704 181.738C138.301 181.728 136.921 182.085 135.699 182.775C135.888 182.334 135.985 181.859 135.986 181.379C135.986 180.759 135.822 180.149 135.51 179.613C135.198 179.077 134.75 178.633 134.21 178.327C133.671 178.021 133.059 177.863 132.439 177.871C131.819 177.878 131.211 178.05 130.679 178.369C130.739 177.959 130.771 177.545 130.773 177.13C130.783 175.085 130.102 173.096 128.842 171.486C127.581 169.876 125.814 168.738 123.827 168.256C121.839 167.774 119.748 167.977 117.89 168.831C116.032 169.685 114.516 171.141 113.588 172.964C113.346 172.394 112.942 171.908 112.427 171.564C111.912 171.22 111.308 171.034 110.689 171.028C110.07 171.023 109.463 171.198 108.942 171.533C108.421 171.867 108.008 172.346 107.756 172.912C106.939 171.596 105.715 170.582 104.27 170.023C102.825 169.465 101.237 169.392 99.7471 169.816C98.2571 170.24 96.9459 171.139 96.0118 172.375C95.0778 173.611 94.5718 175.117 94.5705 176.666C94.5734 177.024 94.603 177.381 94.659 177.734C94.272 177.417 93.803 177.217 93.3066 177.157C92.8103 177.096 92.307 177.178 91.8553 177.392C91.4036 177.607 91.022 177.945 90.755 178.368C90.4881 178.791 90.3466 179.28 90.3472 179.78C90.3472 179.78 90.3472 179.78 90.3472 179.812C89.3866 179.25 88.2936 178.955 87.181 178.958C85.6502 178.959 84.1716 179.514 83.0176 180.52C81.8635 181.526 81.1117 182.915 80.9008 184.431C80.1894 184.162 79.4156 184.105 78.6725 184.266C77.9293 184.426 77.2484 184.798 76.7115 185.337C76.1747 185.875 75.8048 186.557 75.6464 187.301C75.4879 188.045 75.5476 188.818 75.8183 189.529C73.8219 190.324 72.1649 191.79 71.1323 193.675C70.0998 195.559 69.7561 197.745 70.1605 199.855C70.5648 201.966 71.6919 203.87 73.348 205.239C75.004 206.609 77.0854 207.358 79.2344 207.359L112.432 229.726L147.942 206.865C149.446 206.861 150.907 206.369 152.106 205.461C153.305 204.554 154.176 203.281 154.588 201.835C154.999 200.389 154.929 198.848 154.388 197.445C153.847 196.043 152.864 194.854 151.587 194.059L151.603 194.054ZM146.947 193.086C146.955 193.068 146.964 193.05 146.974 193.034C146.976 193.049 146.976 193.065 146.974 193.08L146.947 193.086Z" fill="#F5F5F5"/>
<path d="M87.1861 178.953C85.6553 178.954 84.1767 179.509 83.0227 180.515C81.8686 181.521 81.1169 182.91 80.9059 184.426C80.1945 184.157 79.4207 184.1 78.6776 184.261C77.9344 184.421 77.2535 184.793 76.7167 185.332C76.1799 185.87 75.81 186.552 75.6515 187.296C75.493 188.04 75.5527 188.813 75.8234 189.524C73.827 190.319 72.17 191.785 71.1375 193.67C70.1049 195.554 69.7613 197.74 70.1656 199.85C70.57 201.961 71.6971 203.865 73.3531 205.234C75.0091 206.604 77.0906 207.353 79.2395 207.354L112.437 229.721L145.515 208.427L146.364 205.245C141.86 211.093 135.84 206.438 135.84 206.438C135.84 206.438 135.382 209.422 132.861 209.604C132.163 209.671 131.46 209.526 130.846 209.187C130.231 208.847 129.734 208.33 129.419 207.703C129.092 209.036 128.374 210.241 127.358 211.164C126.343 212.087 125.075 212.686 123.717 212.885C118.801 213.796 115.932 208.401 115.932 208.401C115.932 208.401 115.01 210.833 112.437 210.182C109.865 209.531 110.776 208.099 110.776 208.099C110.776 208.099 109.313 209.385 106.798 208.042C104.282 206.698 104.111 202.761 104.111 202.761C102.782 203.287 101.33 203.419 99.9285 203.142C98.5268 202.865 97.2344 202.19 96.2055 201.199C92.5603 197.736 95.6483 192.976 95.6483 192.976C90.17 194.049 90.3731 189.555 90.3731 189.555C82.7181 188.508 83.2701 180.999 87.1861 178.953Z" fill="#F0F0F0"/>
<path d="M120.983 219.899L119.821 288.961L127.044 284.789L129.419 215.03L120.983 219.899Z" fill="#FAFAFA"/>
<path d="M129.419 215.03L127.044 284.79L134.241 280.639L137.876 210.146L129.419 215.03Z" fill="#0084FF"/>
<path d="M114.822 223.456C114.127 223.819 113.351 223.998 112.567 223.977V292.387C113.351 292.409 114.127 292.23 114.822 291.867L119.821 288.982L120.983 219.92L114.822 223.456Z" fill="#0084FF"/>
<path d="M141.401 276.504L146.276 273.687C146.942 273.251 147.508 272.678 147.936 272.006C148.364 271.335 148.645 270.58 148.76 269.792L154.873 200.334L146.364 205.245L141.401 276.504Z" fill="#0084FF"/>
<path d="M137.876 210.146L134.241 280.64L141.401 276.505L146.364 205.245L137.876 210.146Z" fill="#FAFAFA"/>
<path d="M104.157 219.899L105.319 288.961L98.0958 284.789L95.7212 215.03L104.157 219.899Z" fill="#0084FF"/>
<path d="M95.7212 215.03L98.0958 284.79L90.8991 280.639L87.259 210.146L95.7212 215.03Z" fill="#E6E6E6"/>
<path d="M110.292 223.456C110.987 223.818 111.763 223.997 112.547 223.977V292.387C111.763 292.408 110.987 292.228 110.292 291.867L105.298 288.982L104.136 219.92L110.292 223.456Z" fill="#E6E6E6"/>
<path d="M83.7334 276.504L78.8592 273.687C78.1923 273.251 77.6258 272.679 77.1975 272.007C76.7692 271.335 76.4889 270.58 76.3752 269.792L70.2616 200.334L78.7759 205.245L83.7334 276.504Z" fill="#E6E6E6"/>
<path d="M87.2589 210.146L90.8989 280.64L83.7386 276.505L78.7759 205.245L87.2589 210.146Z" fill="#0084FF"/>
<path opacity="0.1" d="M104.157 219.899L105.319 288.961L98.0958 284.789L95.7212 215.03L104.157 219.899Z" fill="black"/>
<path opacity="0.1" d="M87.2589 210.146L90.8989 280.64L83.7386 276.505L78.7759 205.245L87.2589 210.146Z" fill="black"/>
<path d="M110.776 208.115C110.364 208.683 109.822 209.144 109.196 209.459C108.569 209.774 107.875 209.935 107.174 209.927C106.472 209.919 105.783 209.743 105.163 209.414C104.543 209.085 104.012 208.612 103.613 208.035C103.213 207.458 102.958 206.794 102.869 206.098C102.779 205.402 102.857 204.695 103.098 204.036C103.338 203.376 103.732 202.784 104.248 202.309C104.764 201.833 105.387 201.488 106.064 201.303C105.59 201.959 105.307 202.734 105.245 203.541C105.183 204.347 105.345 205.156 105.714 205.876C106.082 206.597 106.642 207.202 107.332 207.624C108.023 208.047 108.816 208.271 109.625 208.271C110.014 208.272 110.402 208.219 110.776 208.115V208.115Z" fill="#E0E0E0"/>
<path d="M115.932 208.401C115.982 208.856 115.922 209.316 115.757 209.742C115.593 210.169 115.329 210.55 114.986 210.854C114.644 211.157 114.234 211.374 113.791 211.486C113.347 211.598 112.883 211.602 112.438 211.498C111.993 211.393 111.579 211.184 111.232 210.887C110.884 210.589 110.613 210.213 110.441 209.789C110.269 209.366 110.201 208.907 110.243 208.451C110.285 207.996 110.436 207.557 110.682 207.172C110.745 207.771 110.997 208.335 111.401 208.781C111.912 209.341 112.624 209.677 113.381 209.714C114.138 209.751 114.879 209.487 115.442 208.979C115.629 208.808 115.793 208.614 115.932 208.401Z" fill="#E0E0E0"/>
<path d="M98.4135 187.602C98.7983 188.189 99.0368 188.86 99.1088 189.558C99.1809 190.256 99.0844 190.962 98.8276 191.615C98.5707 192.268 98.1609 192.851 97.6326 193.313C97.1043 193.775 96.4728 194.104 95.7912 194.272C95.1096 194.439 94.3977 194.441 93.7152 194.277C93.0327 194.113 92.3995 193.787 91.8688 193.328C91.3381 192.868 90.9253 192.288 90.665 191.636C90.4048 190.984 90.3047 190.28 90.3731 189.581C90.8711 190.341 91.5927 190.927 92.4381 191.26C93.2836 191.592 94.2114 191.654 95.0936 191.437C95.9757 191.22 96.7688 190.734 97.3634 190.047C97.958 189.361 98.3249 188.506 98.4135 187.602Z" fill="#E0E0E0"/>
<path d="M91.6126 191.773C91.8245 192.178 91.9362 192.628 91.9384 193.085C91.9405 193.543 91.8331 193.993 91.625 194.4C91.4169 194.807 91.1142 195.159 90.7424 195.424C90.3706 195.69 89.9405 195.863 89.4881 195.928C89.0357 195.994 88.5742 195.95 88.1424 195.8C87.7105 195.65 87.3209 195.399 87.0062 195.067C86.6915 194.736 86.4608 194.334 86.3336 193.895C86.2063 193.456 86.1862 192.993 86.2749 192.544C86.5514 193.08 86.9934 193.513 87.5351 193.778C87.8716 193.945 88.2376 194.044 88.6123 194.07C88.9871 194.095 89.3632 194.047 89.7191 193.927C90.075 193.807 90.4038 193.618 90.6867 193.371C90.9696 193.124 91.2011 192.823 91.3679 192.487C91.4794 192.26 91.5617 192.021 91.6126 191.773Z" fill="#E0E0E0"/>
<path d="M137.09 198.179C137.133 198.881 137.008 199.583 136.724 200.226C136.44 200.87 136.005 201.436 135.457 201.876C134.909 202.317 134.264 202.62 133.574 202.759C132.885 202.899 132.172 202.871 131.496 202.678C130.82 202.485 130.199 202.132 129.688 201.649C129.176 201.167 128.788 200.569 128.555 199.905C128.322 199.241 128.253 198.531 128.351 197.835C128.45 197.139 128.714 196.476 129.122 195.903C129.171 196.711 129.442 197.49 129.906 198.153C130.37 198.816 131.008 199.338 131.75 199.662C132.492 199.985 133.309 200.097 134.111 199.985C134.913 199.873 135.668 199.542 136.293 199.028C136.593 198.779 136.86 198.494 137.09 198.179V198.179Z" fill="#E0E0E0"/>
<path d="M141.844 196.106C141.894 196.561 141.834 197.02 141.67 197.447C141.505 197.874 141.241 198.255 140.899 198.558C140.556 198.862 140.146 199.079 139.703 199.191C139.26 199.303 138.796 199.307 138.351 199.203C137.905 199.098 137.491 198.889 137.144 198.591C136.796 198.294 136.525 197.918 136.353 197.494C136.181 197.07 136.113 196.612 136.155 196.156C136.197 195.701 136.348 195.262 136.595 194.877C136.654 195.486 136.907 196.059 137.319 196.512C137.829 197.072 138.541 197.407 139.298 197.444C140.055 197.482 140.797 197.218 141.36 196.71C141.547 196.531 141.71 196.328 141.844 196.106V196.106Z" fill="#E0E0E0"/>
<path d="M129.455 191.273C129.864 191.478 130.218 191.777 130.487 192.146C130.756 192.515 130.933 192.943 131.003 193.395C131.072 193.846 131.033 194.308 130.887 194.741C130.742 195.174 130.495 195.566 130.167 195.884C129.839 196.202 129.439 196.436 129.002 196.568C128.564 196.7 128.102 196.725 127.653 196.641C127.204 196.557 126.781 196.367 126.421 196.086C126.06 195.806 125.772 195.443 125.581 195.028C126.053 195.263 126.58 195.362 127.105 195.316C127.63 195.27 128.132 195.08 128.555 194.766C128.979 194.452 129.308 194.028 129.505 193.539C129.702 193.051 129.761 192.517 129.674 191.997C129.634 191.747 129.561 191.504 129.455 191.273V191.273Z" fill="#E0E0E0"/>
<path d="M194.377 206.12C187.67 202.381 178.469 202.995 168.34 208.854C147.755 220.701 131.122 249.545 131.122 273.26C131.122 286.419 136.246 295.23 144.313 298.454C150.791 301.058 159.17 300.016 168.314 294.736C188.852 282.873 205.506 254.029 205.506 230.314C205.506 218.321 201.246 209.932 194.377 206.12ZM194.742 220.503C192.659 222.784 190.451 225.273 188.248 227.892C183.808 233.141 179.637 238.61 175.75 244.28C175.229 245.061 174.709 245.817 174.261 246.525C173.761 246.154 173.14 245.984 172.522 246.051C172.678 245.499 172.834 244.921 172.995 244.317L172.188 245.541C171.688 245.17 171.068 245.001 170.449 245.067C170.668 244.317 170.886 243.504 171.105 242.65C172.713 236.482 173.946 230.221 174.797 223.903C175.235 220.852 175.563 217.842 175.807 215.051C180.828 213.697 185.306 214.171 188.857 216.238C191.158 217.114 193.187 218.579 194.742 220.487V220.503ZM143.948 247.655C147.807 238.557 153.816 229.949 160.852 223.7C160.93 224.575 161.013 225.46 161.117 226.351C161.711 225.778 162.31 225.221 162.924 224.679C163.138 227.189 163.445 229.83 163.898 232.366C164.661 237.296 165.899 242.14 167.595 246.832C167.809 247.431 168.054 247.983 168.246 248.493C167.564 249.244 166.979 250.079 166.507 250.977C166.043 250.805 165.559 250.618 165.038 250.456C160.97 249.242 156.754 248.592 152.509 248.524C150.344 248.435 148.176 248.472 146.015 248.634C146.172 248.264 146.333 247.889 146.494 247.525C145.635 247.535 144.786 247.582 143.948 247.639V247.655ZM147.833 286.94C147.227 286.424 146.665 285.86 146.151 285.253L145.771 285.961C141.719 282.519 139.272 276.588 139.272 268.558C139.272 267.964 139.303 267.35 139.303 266.751C141.558 265.985 143.99 265.105 146.453 264.1C151.565 261.997 156.506 259.5 161.232 256.633C161.914 256.205 162.565 255.799 163.164 255.393C163.179 256.08 163.386 256.75 163.763 257.325C164.283 257.002 164.768 256.69 165.231 256.377C165.243 257.096 165.47 257.794 165.882 258.382C165.361 259.028 164.841 259.747 164.278 260.502C160.826 265.225 156.639 271.562 152.863 278.014C151.072 281.009 149.385 284.024 147.833 286.925V286.94ZM170.392 286.315C166.746 288.429 163.19 289.69 159.977 290.08C160.169 289.591 160.362 289.096 160.55 288.601C159.682 288.826 158.8 288.991 157.909 289.096C159.081 286.133 160.221 282.993 161.31 279.795C163.463 273.528 165.286 267.152 166.772 260.694C166.96 259.866 167.101 259.064 167.262 258.315C167.642 258.179 168.006 258.004 168.35 257.794C168.719 257.579 169.067 257.331 169.392 257.054C169.529 257.67 169.703 258.277 169.913 258.872C169.913 258.924 169.944 258.971 169.954 259.023C170.1 258.955 170.246 258.872 170.397 258.788C170.766 258.575 171.115 258.327 171.438 258.049H171.464C171.591 258.666 171.755 259.274 171.954 259.872C173.305 264.314 175.145 268.592 177.437 272.63C178.464 274.489 179.598 276.287 180.833 278.014C177.755 281.254 174.241 284.047 170.392 286.315V286.315ZM191.019 259.596C190.972 259.705 190.914 259.814 190.857 259.924C189.264 258.769 187.594 257.725 185.858 256.799C185.478 256.586 185.082 256.383 184.691 256.185C182.055 255.004 179.305 254.093 176.484 253.466C175.938 253.341 175.396 253.248 174.922 253.185C175 253.003 175.063 252.826 175.125 252.664L174.428 252.503C173.912 252.383 173.391 252.29 172.865 252.227C173.232 251.347 173.452 250.413 173.516 249.462C174.115 249.181 174.771 248.832 175.422 248.488C180.573 245.624 185.521 242.41 190.232 238.87C192.68 237.052 195.096 235.12 197.351 233.282C197.351 233.881 197.382 234.464 197.382 235.058C197.382 235.344 197.382 235.631 197.382 235.922L199.429 234.266C199.429 234.865 199.429 235.443 199.429 236.037C199.429 244.041 196.981 252.831 192.935 260.939C192.32 260.444 191.68 260.007 191.019 259.58V259.596Z" fill="#0084FF"/>
<path opacity="0.4" d="M194.377 206.12C187.67 202.381 178.469 202.995 168.34 208.854C147.755 220.701 131.122 249.545 131.122 273.26C131.122 286.419 136.246 295.23 144.313 298.454C150.791 301.058 159.17 300.016 168.314 294.736C188.852 282.873 205.506 254.029 205.506 230.314C205.506 218.321 201.246 209.932 194.377 206.12ZM194.742 220.503C192.659 222.784 190.451 225.273 188.248 227.892C183.808 233.141 179.637 238.61 175.75 244.28C175.229 245.061 174.709 245.817 174.261 246.525C173.761 246.154 173.14 245.984 172.522 246.051C172.678 245.499 172.834 244.921 172.995 244.317L172.188 245.541C171.688 245.17 171.068 245.001 170.449 245.067C170.668 244.317 170.886 243.504 171.105 242.65C172.713 236.482 173.946 230.221 174.797 223.903C175.235 220.852 175.563 217.842 175.807 215.051C180.828 213.697 185.306 214.171 188.857 216.238C191.158 217.114 193.187 218.579 194.742 220.487V220.503ZM143.948 247.655C147.807 238.557 153.816 229.949 160.852 223.7C160.93 224.575 161.013 225.46 161.117 226.351C161.711 225.778 162.31 225.221 162.924 224.679C163.138 227.189 163.445 229.83 163.898 232.366C164.661 237.296 165.899 242.14 167.595 246.832C167.809 247.431 168.054 247.983 168.246 248.493C167.564 249.244 166.979 250.079 166.507 250.977C166.043 250.805 165.559 250.618 165.038 250.456C160.97 249.242 156.754 248.592 152.509 248.524C150.344 248.435 148.176 248.472 146.015 248.634C146.172 248.264 146.333 247.889 146.494 247.525C145.635 247.535 144.786 247.582 143.948 247.639V247.655ZM147.833 286.94C147.227 286.424 146.665 285.86 146.151 285.253L145.771 285.961C141.719 282.519 139.272 276.588 139.272 268.558C139.272 267.964 139.303 267.35 139.303 266.751C141.558 265.985 143.99 265.105 146.453 264.1C151.565 261.997 156.506 259.5 161.232 256.633C161.914 256.205 162.565 255.799 163.164 255.393C163.179 256.08 163.386 256.75 163.763 257.325C164.283 257.002 164.768 256.69 165.231 256.377C165.243 257.096 165.47 257.794 165.882 258.382C165.361 259.028 164.841 259.747 164.278 260.502C160.826 265.225 156.639 271.562 152.863 278.014C151.072 281.009 149.385 284.024 147.833 286.925V286.94ZM170.392 286.315C166.746 288.429 163.19 289.69 159.977 290.08C160.169 289.591 160.362 289.096 160.55 288.601C159.682 288.826 158.8 288.991 157.909 289.096C159.081 286.133 160.221 282.993 161.31 279.795C163.463 273.528 165.286 267.152 166.772 260.694C166.96 259.866 167.101 259.064 167.262 258.315C167.642 258.179 168.006 258.004 168.35 257.794C168.719 257.579 169.067 257.331 169.392 257.054C169.529 257.67 169.703 258.277 169.913 258.872C169.913 258.924 169.944 258.971 169.954 259.023C170.1 258.955 170.246 258.872 170.397 258.788C170.766 258.575 171.115 258.327 171.438 258.049H171.464C171.591 258.666 171.755 259.274 171.954 259.872C173.305 264.314 175.145 268.592 177.437 272.63C178.464 274.489 179.598 276.287 180.833 278.014C177.755 281.254 174.241 284.047 170.392 286.315V286.315ZM191.019 259.596C190.972 259.705 190.914 259.814 190.857 259.924C189.264 258.769 187.594 257.725 185.858 256.799C185.478 256.586 185.082 256.383 184.691 256.185C182.055 255.004 179.305 254.093 176.484 253.466C175.938 253.341 175.396 253.248 174.922 253.185C175 253.003 175.063 252.826 175.125 252.664L174.428 252.503C173.912 252.383 173.391 252.29 172.865 252.227C173.232 251.347 173.452 250.413 173.516 249.462C174.115 249.181 174.771 248.832 175.422 248.488C180.573 245.624 185.521 242.41 190.232 238.87C192.68 237.052 195.096 235.12 197.351 233.282C197.351 233.881 197.382 234.464 197.382 235.058C197.382 235.344 197.382 235.631 197.382 235.922L199.429 234.266C199.429 234.865 199.429 235.443 199.429 236.037C199.429 244.041 196.981 252.831 192.935 260.939C192.32 260.444 191.68 260.007 191.019 259.58V259.596Z" fill="white"/>
<path d="M194.377 206.12C187.904 203.516 179.526 204.558 170.381 209.838C149.838 221.685 133.174 250.524 133.174 274.244C133.174 286.222 137.439 294.621 144.302 298.454C151.014 302.193 160.216 301.579 170.371 295.715C190.909 283.857 207.563 255.018 207.563 231.298C207.573 218.139 202.433 209.323 194.377 206.12ZM175.11 252.633C175.356 251.917 175.507 251.171 175.557 250.415C176.151 250.128 176.807 249.785 177.458 249.436C182.61 246.573 187.56 243.362 192.273 239.823C193.992 238.542 195.695 237.219 197.346 235.891L199.392 234.235C199.392 234.834 199.392 235.412 199.392 236.006C199.392 244.01 196.945 252.8 192.898 260.908C192.294 260.46 191.654 260.023 190.992 259.596C190.003 258.96 188.962 258.351 187.899 257.768C186.837 257.185 185.759 256.653 184.665 256.174C182.028 254.994 179.279 254.083 176.458 253.456C175.912 253.331 175.37 253.237 174.896 253.175C174.985 252.987 175.047 252.8 175.11 252.618V252.633ZM194.742 220.503C192.659 222.784 190.451 225.273 188.248 227.892C183.808 233.141 179.637 238.61 175.75 244.28C175.229 245.062 174.709 245.817 174.261 246.525C173.761 246.154 173.14 245.985 172.521 246.051C172.678 245.499 172.834 244.921 172.995 244.317C173.053 244.093 173.11 243.864 173.172 243.635C174.779 237.466 176.012 231.205 176.864 224.888C177.302 221.847 177.625 218.831 177.87 216.035C181.963 214.931 185.681 215.046 188.857 216.243C191.157 217.118 193.186 218.581 194.742 220.487V220.503ZM170.392 258.794C170.761 258.58 171.11 258.333 171.433 258.054H171.459C171.586 258.671 171.749 259.28 171.949 259.877C173.302 264.317 175.143 268.594 177.437 272.63C178.464 274.489 179.598 276.287 180.833 278.015C177.762 281.246 174.257 284.035 170.418 286.3C166.772 288.414 163.216 289.674 160.003 290.065C160.195 289.575 160.388 289.081 160.575 288.586C161.549 286.06 162.492 283.43 163.403 280.775C165.558 274.51 167.382 268.136 168.866 261.679C169.053 260.846 169.189 260.049 169.35 259.294C169.573 259.224 169.789 259.136 169.996 259.028C170.095 258.945 170.241 258.861 170.392 258.778V258.794ZM141.339 269.542C141.339 268.943 141.37 268.329 141.37 267.735C143.625 266.964 146.057 266.084 148.515 265.084C153.628 262.979 158.57 260.483 163.299 257.617L163.762 257.325C164.283 257.002 164.767 256.69 165.231 256.377C165.243 257.096 165.47 257.794 165.882 258.382C165.361 259.028 164.84 259.747 164.278 260.502C160.825 265.225 156.639 271.563 152.863 278.015C151.072 281.025 149.385 284.04 147.833 286.94C147.227 286.424 146.665 285.86 146.151 285.253C143.115 281.681 141.339 276.343 141.339 269.526V269.542ZM162.924 224.695C163.138 227.205 163.445 229.845 163.898 232.381C164.661 237.311 165.899 242.156 167.595 246.848C167.809 247.447 168.053 247.999 168.246 248.509C167.563 249.26 166.979 250.095 166.507 250.993C166.043 250.821 165.559 250.634 165.038 250.472C160.97 249.258 156.754 248.608 152.509 248.54C150.344 248.451 148.176 248.488 146.015 248.65C146.171 248.28 146.333 247.905 146.494 247.54C149.998 239.631 154.958 232.452 161.117 226.377C161.711 225.778 162.336 225.221 162.924 224.679V224.695Z" fill="#0084FF"/>
<path opacity="0.15" d="M194.377 206.12C187.904 203.516 179.526 204.558 170.381 209.838C149.838 221.685 133.174 250.524 133.174 274.244C133.174 286.222 137.439 294.621 144.302 298.454C151.014 302.193 160.216 301.579 170.371 295.715C190.909 283.857 207.563 255.018 207.563 231.298C207.573 218.139 202.433 209.323 194.377 206.12ZM175.11 252.633C175.356 251.917 175.507 251.171 175.557 250.415C176.151 250.128 176.807 249.785 177.458 249.436C182.61 246.573 187.56 243.362 192.273 239.823C193.992 238.542 195.695 237.219 197.346 235.891L199.392 234.235C199.392 234.834 199.392 235.412 199.392 236.006C199.392 244.01 196.945 252.8 192.898 260.908C192.294 260.46 191.654 260.023 190.992 259.596C190.003 258.96 188.962 258.351 187.899 257.768C186.837 257.185 185.759 256.653 184.665 256.174C182.028 254.994 179.279 254.083 176.458 253.456C175.912 253.331 175.37 253.237 174.896 253.175C174.985 252.987 175.047 252.8 175.11 252.618V252.633ZM194.742 220.503C192.659 222.784 190.451 225.273 188.248 227.892C183.808 233.141 179.637 238.61 175.75 244.28C175.229 245.062 174.709 245.817 174.261 246.525C173.761 246.154 173.14 245.985 172.521 246.051C172.678 245.499 172.834 244.921 172.995 244.317C173.053 244.093 173.11 243.864 173.172 243.635C174.779 237.466 176.012 231.205 176.864 224.888C177.302 221.847 177.625 218.831 177.87 216.035C181.963 214.931 185.681 215.046 188.857 216.243C191.157 217.118 193.186 218.581 194.742 220.487V220.503ZM170.392 258.794C170.761 258.58 171.11 258.333 171.433 258.054H171.459C171.586 258.671 171.749 259.28 171.949 259.877C173.302 264.317 175.143 268.594 177.437 272.63C178.464 274.489 179.598 276.287 180.833 278.015C177.762 281.246 174.257 284.035 170.418 286.3C166.772 288.414 163.216 289.674 160.003 290.065C160.195 289.575 160.388 289.081 160.575 288.586C161.549 286.06 162.492 283.43 163.403 280.775C165.558 274.51 167.382 268.136 168.866 261.679C169.053 260.846 169.189 260.049 169.35 259.294C169.573 259.224 169.789 259.136 169.996 259.028C170.095 258.945 170.241 258.861 170.392 258.778V258.794ZM141.339 269.542C141.339 268.943 141.37 268.329 141.37 267.735C143.625 266.964 146.057 266.084 148.515 265.084C153.628 262.979 158.57 260.483 163.299 257.617L163.762 257.325C164.283 257.002 164.767 256.69 165.231 256.377C165.243 257.096 165.47 257.794 165.882 258.382C165.361 259.028 164.84 259.747 164.278 260.502C160.825 265.225 156.639 271.563 152.863 278.015C151.072 281.025 149.385 284.04 147.833 286.94C147.227 286.424 146.665 285.86 146.151 285.253C143.115 281.681 141.339 276.343 141.339 269.526V269.542ZM162.924 224.695C163.138 227.205 163.445 229.845 163.898 232.381C164.661 237.311 165.899 242.156 167.595 246.848C167.809 247.447 168.053 247.999 168.246 248.509C167.563 249.26 166.979 250.095 166.507 250.993C166.043 250.821 165.559 250.634 165.038 250.472C160.97 249.258 156.754 248.608 152.509 248.54C150.344 248.451 148.176 248.488 146.015 248.65C146.171 248.28 146.333 247.905 146.494 247.54C149.998 239.631 154.958 232.452 161.117 226.377C161.711 225.778 162.336 225.221 162.924 224.679V224.695Z" fill="black"/>
<path d="M165.882 258.367C165.361 259.013 164.841 259.731 164.278 260.486C160.826 265.21 156.639 271.547 152.863 277.999C151.072 281.009 149.385 284.024 147.833 286.925C147.228 286.409 146.665 285.845 146.151 285.238C147.593 282.551 149.15 279.785 150.801 277.015C154.577 270.568 158.763 264.231 162.216 259.502C162.737 258.752 163.299 258.028 163.815 257.388L163.763 257.31C164.283 256.987 164.768 256.675 165.231 256.362C165.243 257.08 165.47 257.779 165.882 258.367V258.367Z" fill="#0084FF"/>
<path opacity="0.4" d="M165.882 258.367C165.361 259.013 164.841 259.731 164.278 260.486C160.826 265.21 156.639 271.547 152.863 277.999C151.072 281.009 149.385 284.024 147.833 286.925C147.228 286.409 146.665 285.845 146.151 285.238C147.593 282.551 149.15 279.785 150.801 277.015C154.577 270.568 158.763 264.231 162.216 259.502C162.737 258.752 163.299 258.028 163.815 257.388L163.763 257.31C164.283 256.987 164.768 256.675 165.231 256.362C165.243 257.08 165.47 257.779 165.882 258.367V258.367Z" fill="black"/>
<path d="M180.827 278.015C177.757 281.247 174.252 284.035 170.412 286.3C166.767 288.414 163.21 289.675 159.997 290.065C160.19 289.576 160.383 289.081 160.57 288.586C163.313 287.863 165.942 286.762 168.381 285.316C172.22 283.05 175.725 280.262 178.796 277.031C177.549 275.303 176.4 273.508 175.354 271.651C173.092 267.649 171.276 263.411 169.939 259.013C170.084 258.945 170.23 258.862 170.381 258.779C170.751 258.565 171.099 258.317 171.423 258.039H171.449C171.575 258.656 171.739 259.264 171.938 259.862C173.294 264.308 175.138 268.59 177.437 272.63C178.463 274.489 179.595 276.287 180.827 278.015V278.015Z" fill="#0084FF"/>
<path opacity="0.3" d="M180.827 278.015C177.757 281.247 174.252 284.035 170.412 286.3C166.767 288.415 163.21 289.675 159.997 290.065C160.19 289.576 160.383 289.081 160.57 288.586C163.313 287.863 165.942 286.762 168.381 285.316C172.22 283.05 175.725 280.262 178.796 277.031" fill="black"/>
<path opacity="0.4" d="M177.437 272.63C175.15 268.584 173.318 264.296 171.975 259.846C171.775 259.249 171.612 258.64 171.485 258.023H171.459C171.135 258.301 170.787 258.549 170.417 258.763C170.266 258.846 170.121 258.929 169.975 258.997C171.3 263.399 173.104 267.643 175.354 271.651C176.385 273.506 177.518 275.302 178.749 277.031L180.832 278.015C179.598 276.287 178.464 274.489 177.437 272.63Z" fill="black"/>
<path d="M184.691 256.159C182.055 254.978 179.305 254.068 176.484 253.441C175.938 253.316 175.396 253.222 174.922 253.16C175 252.977 175.063 252.8 175.125 252.639C178.44 253.438 181.65 254.62 184.691 256.159V256.159Z" fill="#0084FF"/>
<path d="M199.418 235.99C199.418 243.994 196.971 252.784 192.924 260.893C192.32 260.445 191.68 260.007 191.018 259.58C194.83 251.858 197.179 243.531 197.346 235.876L199.392 234.22C199.392 234.819 199.418 235.397 199.418 235.99Z" fill="#0084FF"/>
<path opacity="0.4" d="M184.691 256.159C182.055 254.978 179.305 254.068 176.484 253.441C175.938 253.316 175.396 253.222 174.922 253.16C175 252.977 175.063 252.8 175.125 252.639C178.44 253.438 181.65 254.62 184.691 256.159V256.159Z" fill="black"/>
<path opacity="0.3" d="M199.418 235.99C199.418 243.994 196.971 252.784 192.924 260.893C192.32 260.445 191.68 260.007 191.018 259.58C194.83 251.858 197.179 243.531 197.346 235.876L199.392 234.22C199.392 234.819 199.418 235.397 199.418 235.99Z" fill="black"/>
<path d="M194.742 220.487C192.659 222.768 190.451 225.258 188.248 227.877C183.808 233.125 179.637 238.595 175.75 244.265C175.23 245.046 174.709 245.801 174.261 246.509C173.761 246.138 173.14 245.969 172.522 246.035C172.678 245.483 172.834 244.905 172.995 244.301L173.683 243.26C177.572 237.593 181.743 232.125 186.181 226.877C188.384 224.273 190.581 221.758 192.68 219.488C191.606 218.185 190.31 217.083 188.852 216.233C191.155 217.109 193.186 218.577 194.742 220.487Z" fill="#0084FF"/>
<path opacity="0.4" d="M194.742 220.487C192.659 222.768 190.451 225.258 188.248 227.877C183.808 233.125 179.637 238.595 175.75 244.265C175.23 245.046 174.709 245.801 174.261 246.509C173.761 246.138 173.14 245.969 172.522 246.035C172.678 245.483 172.834 244.905 172.995 244.301L173.683 243.26C177.572 237.593 181.743 232.125 186.181 226.877C188.384 224.273 190.581 221.758 192.68 219.488C191.606 218.185 190.31 217.083 188.852 216.233C191.155 217.109 193.186 218.577 194.742 220.487Z" fill="black"/>
<path d="M168.246 248.494C167.564 249.245 166.979 250.079 166.507 250.978C166.043 250.806 165.559 250.618 165.038 250.457C160.97 249.243 156.754 248.593 152.509 248.525C150.344 248.436 148.176 248.472 146.015 248.634C146.172 248.265 146.333 247.89 146.494 247.525C147.807 247.478 149.129 247.483 150.442 247.525C154.687 247.596 158.902 248.246 162.971 249.457C163.492 249.629 163.981 249.816 164.445 249.978C164.915 249.078 165.5 248.244 166.184 247.494C165.991 246.973 165.747 246.452 165.528 245.833C163.833 241.139 162.595 236.292 161.831 231.361C161.549 229.71 161.31 228.013 161.117 226.331C161.711 225.758 162.31 225.201 162.924 224.659C163.138 227.169 163.445 229.809 163.898 232.345C164.661 237.275 165.899 242.12 167.595 246.812C167.809 247.431 168.064 247.983 168.246 248.494Z" fill="#0084FF"/>
<path opacity="0.4" d="M166.184 247.515C165.5 248.264 164.915 249.099 164.445 249.999C163.981 249.822 163.492 249.634 162.971 249.478C158.902 248.267 154.687 247.617 150.442 247.546C149.129 247.489 147.807 247.483 146.494 247.546C146.333 247.91 146.172 248.285 146.015 248.655C148.176 248.493 150.344 248.457 152.509 248.546C156.754 248.614 160.97 249.264 165.038 250.478C165.559 250.65 166.043 250.837 166.507 250.998C166.979 250.1 167.564 249.265 168.246 248.515L166.184 247.515Z" fill="black"/>
<path opacity="0.3" d="M166.184 247.515C165.991 246.994 165.746 246.473 165.528 245.854C163.833 241.16 162.595 236.313 161.83 231.382C161.549 229.731 161.31 228.034 161.117 226.352C161.711 225.779 162.309 225.222 162.924 224.68C163.137 227.19 163.445 229.83 163.898 232.366C164.661 237.296 165.899 242.141 167.595 246.833C167.809 247.431 168.053 247.983 168.246 248.494" fill="black"/>
<path d="M188.248 220.295L203.949 229.351C203.446 229.067 202.924 228.82 202.386 228.612C197.819 226.794 191.914 227.513 185.467 231.215C170.99 239.573 159.258 259.909 159.258 276.625C159.258 284.811 162.08 290.612 166.653 293.424L151.139 284.452C146.421 281.702 143.495 275.849 143.495 267.517C143.495 250.801 155.233 230.471 169.709 222.113C176.156 218.389 182.062 217.671 186.623 219.509C187.176 219.735 187.712 219.999 188.227 220.3L188.248 220.295Z" fill="#455A64"/>
<path d="M152.546 282.066C148.51 279.718 146.297 274.552 146.297 267.532C146.297 251.722 157.435 232.429 171.126 224.524C174.771 222.441 178.333 221.321 181.452 221.321C182.876 221.309 184.29 221.565 185.618 222.076C186.045 222.252 186.459 222.458 186.858 222.691L191.862 225.581C189.14 226.304 186.529 227.398 184.103 228.83C168.887 237.62 156.503 259.065 156.503 276.64C156.472 279.452 156.822 282.255 157.545 284.972L152.546 282.066Z" fill="#37474F"/>
<path d="M202.402 228.611C197.84 226.789 191.935 227.513 185.488 231.215C171.011 239.578 159.274 259.903 159.274 276.624C159.274 285.076 162.278 290.982 167.121 293.684C171.85 296.319 178.333 295.887 185.488 291.752C199.965 283.42 211.703 263.069 211.703 246.353C211.703 237.094 208.089 230.882 202.402 228.611Z" fill="#37474F"/>
<path d="M143.589 265.527L159.357 274.63C159.419 273.432 159.544 272.219 159.716 270.985L143.953 261.882C143.766 263.118 143.644 264.333 143.589 265.527Z" fill="#455A64"/>
<path d="M164.674 225.612L180.437 234.715C181.395 233.949 182.374 233.231 183.363 232.564L167.6 223.467C166.611 224.128 165.632 224.867 164.674 225.612Z" fill="#455A64"/>
<path d="M157.211 233.027C156.498 233.881 155.811 234.767 155.128 235.668L170.897 244.77C171.563 243.864 172.256 242.984 172.98 242.125L157.211 233.027Z" fill="#455A64"/>
<path d="M148.744 246.375C148.265 247.385 147.817 248.405 147.401 249.437L163.164 258.539C163.58 257.498 164.028 256.477 164.507 255.477L148.744 246.375Z" fill="#455A64"/>
<path d="M203.949 229.356C203.448 229.068 202.926 228.819 202.387 228.611C198.054 226.888 192.539 227.445 186.483 230.694C188.785 229.429 192.352 227.512 196.377 225.018L203.949 229.356Z" fill="#263238"/>
<path d="M185.488 231.231C193.023 226.997 223.331 211.989 223.331 190.513L207.573 181.411C207.573 202.886 177.266 217.894 169.73 222.128L172.532 223.742L174.912 222.18L185.519 228.309L182.765 229.658L185.488 231.231Z" fill="#455A64"/>
<path d="M174.912 222.18C185.504 216.312 206.797 203.564 209.766 185.619L220.733 191.956C219.483 209.74 195.336 222.941 186.097 227.992L185.519 228.31L174.912 222.18Z" fill="#37474F"/>
<path d="M194.539 205.6C193.744 206.322 192.933 207.028 192.107 207.719L207.907 216.796C208.729 216.108 209.542 215.4 210.333 214.671L194.539 205.6Z" fill="#455A64"/>
<path d="M182.046 215.004C181.041 215.645 180.051 216.254 179.099 216.832L194.903 225.909C195.855 225.333 196.837 224.723 197.851 224.081L182.046 215.004Z" fill="#455A64"/>
<path d="M203.923 194.268C203.423 195.15 202.881 196.018 202.298 196.872L218.082 205.938C218.66 205.089 219.201 204.23 219.701 203.334L203.923 194.268Z" fill="#455A64"/>
<path d="M174.912 222.18C172.444 223.534 170.293 225.019 170.293 225.019L180.708 231.033C180.708 231.033 182.89 229.752 185.52 228.31L174.912 222.18Z" fill="#37474F"/>
<path d="M208.839 214.452C202.131 210.713 192.93 211.328 182.775 217.186C162.237 229.049 145.583 257.893 145.583 281.608C145.583 294.767 150.707 303.578 158.779 306.802C165.252 309.406 173.631 308.364 182.775 303.084C203.319 291.221 219.972 262.382 219.972 238.662C219.972 226.679 215.707 218.29 208.839 214.452ZM209.208 228.835C207.125 231.116 204.912 233.605 202.71 236.225C198.271 241.474 194.1 246.944 190.212 252.613C189.691 253.394 189.17 254.149 188.722 254.857C188.223 254.486 187.602 254.317 186.983 254.383C187.139 253.831 187.301 253.253 187.457 252.649C187.176 253.071 186.91 253.477 186.655 253.873C186.155 253.503 185.534 253.334 184.915 253.399C185.134 252.649 185.353 251.837 185.572 250.983C187.177 244.813 188.41 238.553 189.264 232.236C189.701 229.184 190.024 226.174 190.269 223.383C195.289 222.029 199.767 222.503 203.324 224.57C205.624 225.457 207.651 226.931 209.203 228.846L209.208 228.835ZM158.409 255.987C162.273 246.89 168.304 238.282 175.313 232.033C175.391 232.907 175.479 233.793 175.578 234.683C176.172 234.11 176.774 233.553 177.385 233.012C177.599 235.522 177.906 238.162 178.359 240.698C179.121 245.629 180.362 250.474 182.062 255.164C182.275 255.763 182.515 256.315 182.713 256.825C182.029 257.576 181.442 258.411 180.968 259.309C180.51 259.138 180.02 258.95 179.5 258.789C175.431 257.575 171.216 256.925 166.97 256.857C164.806 256.768 162.637 256.804 160.477 256.966C160.633 256.596 160.794 256.221 160.961 255.857C160.102 255.893 159.253 255.94 158.409 255.997V255.987ZM162.299 295.272C161.691 294.758 161.127 294.193 160.612 293.585L160.232 294.293C156.181 290.851 153.738 284.894 153.738 276.89C153.738 276.296 153.769 275.682 153.769 275.083C156.019 274.317 158.456 273.437 160.914 272.432C166.027 270.328 170.97 267.831 175.698 264.965C176.375 264.538 177.026 264.132 177.63 263.725C177.644 264.412 177.849 265.081 178.224 265.657C178.745 265.335 179.229 265.022 179.692 264.71C179.704 265.428 179.931 266.126 180.343 266.714C179.823 267.36 179.302 268.079 178.745 268.834C175.287 273.557 171.1 279.895 167.33 286.347C165.533 289.367 163.851 292.382 162.299 295.283V295.272ZM184.858 294.648C181.187 296.762 177.656 298.022 174.417 298.413C174.61 297.923 174.808 297.428 174.995 296.934C174.127 297.157 173.245 297.323 172.355 297.428C173.521 294.465 174.662 291.325 175.75 288.128C177.908 281.862 179.731 275.486 181.213 269.027C181.406 268.199 181.541 267.397 181.702 266.647C182.083 266.512 182.447 266.337 182.791 266.126C183.16 265.912 183.509 265.664 183.832 265.387H183.858C183.989 266.001 184.155 266.608 184.353 267.204L184.4 267.355C184.541 267.287 184.686 267.204 184.843 267.121C185.212 266.907 185.561 266.66 185.884 266.381H185.915C186.04 266.999 186.203 267.607 186.405 268.204C187.743 272.656 189.576 276.944 191.867 280.988C192.895 282.846 194.026 284.644 195.258 286.373C192.19 289.599 188.691 292.383 184.858 294.648ZM205.485 267.928C205.433 268.037 205.376 268.147 205.318 268.256C203.726 267.101 202.055 266.057 200.319 265.131C199.939 264.918 199.549 264.715 199.158 264.517C196.52 263.334 193.769 262.423 190.946 261.799C190.399 261.674 189.857 261.58 189.384 261.517C189.46 261.347 189.527 261.173 189.587 260.997L188.894 260.799C188.379 260.679 187.857 260.586 187.332 260.523C187.694 259.641 187.914 258.708 187.983 257.758C188.576 257.476 189.232 257.127 189.883 256.784C195.034 253.92 199.982 250.706 204.694 247.166C207.141 245.348 209.557 243.416 211.812 241.578C211.812 242.177 211.843 242.76 211.843 243.354C211.843 243.64 211.843 243.926 211.843 244.218C212.541 243.661 213.223 243.104 213.895 242.562C213.895 243.161 213.895 243.739 213.895 244.333C213.895 252.337 211.453 261.127 207.401 269.235C206.787 268.797 206.148 268.365 205.485 267.938V267.928Z" fill="#0084FF"/>
<path opacity="0.4" d="M208.839 214.452C202.131 210.713 192.93 211.328 182.775 217.186C162.237 229.049 145.583 257.893 145.583 281.608C145.583 294.767 150.707 303.578 158.779 306.802C165.252 309.406 173.631 308.364 182.775 303.084C203.319 291.221 219.972 262.382 219.972 238.662C219.972 226.679 215.707 218.29 208.839 214.452ZM209.208 228.835C207.125 231.116 204.912 233.605 202.71 236.225C198.271 241.474 194.1 246.944 190.212 252.613C189.691 253.394 189.17 254.149 188.722 254.857C188.223 254.486 187.602 254.317 186.983 254.383C187.139 253.831 187.301 253.253 187.457 252.649C187.176 253.071 186.91 253.477 186.655 253.873C186.155 253.503 185.534 253.334 184.915 253.399C185.134 252.649 185.353 251.837 185.572 250.983C187.177 244.813 188.41 238.553 189.264 232.236C189.701 229.184 190.024 226.174 190.269 223.383C195.289 222.029 199.767 222.503 203.324 224.57C205.624 225.457 207.651 226.931 209.203 228.846L209.208 228.835ZM158.409 255.987C162.273 246.89 168.304 238.282 175.313 232.033C175.391 232.907 175.479 233.793 175.578 234.683C176.172 234.11 176.774 233.553 177.385 233.012C177.599 235.522 177.906 238.162 178.359 240.698C179.121 245.629 180.362 250.474 182.062 255.164C182.275 255.763 182.515 256.315 182.713 256.825C182.029 257.576 181.442 258.411 180.968 259.309C180.51 259.138 180.02 258.95 179.5 258.789C175.431 257.575 171.216 256.925 166.97 256.857C164.806 256.768 162.637 256.804 160.477 256.966C160.633 256.596 160.794 256.221 160.961 255.857C160.102 255.893 159.253 255.94 158.409 255.997V255.987ZM162.299 295.272C161.691 294.758 161.127 294.193 160.612 293.585L160.232 294.293C156.181 290.851 153.738 284.894 153.738 276.89C153.738 276.296 153.769 275.682 153.769 275.083C156.019 274.317 158.456 273.437 160.914 272.432C166.027 270.328 170.97 267.831 175.698 264.965C176.375 264.538 177.026 264.132 177.63 263.725C177.644 264.412 177.849 265.081 178.224 265.657C178.745 265.335 179.229 265.022 179.692 264.71C179.704 265.428 179.931 266.126 180.343 266.714C179.823 267.36 179.302 268.079 178.745 268.834C175.287 273.557 171.1 279.895 167.33 286.347C165.533 289.367 163.851 292.382 162.299 295.283V295.272ZM184.858 294.648C181.187 296.762 177.656 298.022 174.417 298.413C174.61 297.923 174.808 297.428 174.995 296.934C174.127 297.157 173.245 297.323 172.355 297.428C173.521 294.465 174.662 291.325 175.75 288.128C177.908 281.862 179.731 275.486 181.213 269.027C181.406 268.199 181.541 267.397 181.702 266.647C182.083 266.512 182.447 266.337 182.791 266.126C183.16 265.912 183.509 265.664 183.832 265.387H183.858C183.989 266.001 184.155 266.608 184.353 267.204L184.4 267.355C184.541 267.287 184.686 267.204 184.843 267.121C185.212 266.907 185.561 266.66 185.884 266.381H185.915C186.04 266.999 186.203 267.607 186.405 268.204C187.743 272.656 189.576 276.944 191.867 280.988C192.895 282.846 194.026 284.644 195.258 286.373C192.19 289.599 188.691 292.383 184.858 294.648ZM205.485 267.928C205.433 268.037 205.376 268.147 205.318 268.256C203.726 267.101 202.055 266.057 200.319 265.131C199.939 264.918 199.549 264.715 199.158 264.517C196.52 263.334 193.769 262.423 190.946 261.799C190.399 261.674 189.857 261.58 189.384 261.517C189.46 261.347 189.527 261.173 189.587 260.997L188.894 260.799C188.379 260.679 187.857 260.586 187.332 260.523C187.694 259.641 187.914 258.708 187.983 257.758C188.576 257.476 189.232 257.127 189.883 256.784C195.034 253.92 199.982 250.706 204.694 247.166C207.141 245.348 209.557 243.416 211.812 241.578C211.812 242.177 211.843 242.76 211.843 243.354C211.843 243.64 211.843 243.926 211.843 244.218C212.541 243.661 213.223 243.104 213.895 242.562C213.895 243.161 213.895 243.739 213.895 244.333C213.895 252.337 211.453 261.127 207.401 269.235C206.787 268.797 206.148 268.365 205.485 267.938V267.928Z" fill="white"/>
<path d="M208.838 214.452C202.365 211.848 193.987 212.89 184.842 218.17C164.299 230.033 147.645 258.872 147.645 282.592C147.645 294.57 151.91 302.969 158.779 306.802C165.486 310.541 174.688 309.926 184.842 304.063C205.381 292.205 222.034 263.366 222.034 239.646C222.034 226.497 216.91 217.681 208.838 214.452ZM189.571 260.966C189.817 260.249 189.968 259.503 190.018 258.747C190.617 258.461 191.273 258.117 191.924 257.768C197.075 254.905 202.023 251.694 206.734 248.155C208.453 246.874 210.156 245.551 211.807 244.223C212.504 243.666 213.187 243.109 213.858 242.567C213.858 243.166 213.858 243.744 213.858 244.338C213.858 252.342 211.416 261.132 207.365 269.24C206.761 268.792 206.127 268.355 205.464 267.928C204.469 267.293 203.428 266.683 202.365 266.1C201.303 265.517 200.23 264.986 199.137 264.507C196.499 263.323 193.747 262.413 190.925 261.788C190.378 261.663 189.836 261.57 189.362 261.507C189.44 261.334 189.51 261.156 189.571 260.976V260.966ZM209.203 228.846C207.12 231.127 204.907 233.616 202.704 236.235C198.266 241.485 194.094 246.954 190.206 252.623C189.685 253.404 189.164 254.159 188.717 254.868C188.217 254.496 187.596 254.327 186.977 254.394C187.133 253.842 187.295 253.264 187.451 252.66C187.514 252.436 187.566 252.207 187.628 251.977C189.238 245.809 190.471 239.548 191.32 233.23C191.758 230.189 192.086 227.174 192.331 224.378C196.418 223.274 200.142 223.388 203.318 224.586C205.618 225.467 207.647 226.936 209.203 228.846V228.846ZM184.853 267.136C185.222 266.923 185.571 266.675 185.894 266.397H185.925C186.05 267.014 186.213 267.623 186.415 268.22C187.753 272.671 189.586 276.96 191.878 281.004C192.905 282.862 194.036 284.659 195.268 286.389C192.196 289.619 188.691 292.408 184.853 294.674C181.181 296.788 177.651 298.048 174.412 298.439C174.604 297.949 174.802 297.455 174.99 296.96C175.958 294.434 176.901 291.804 177.812 289.149C179.967 282.884 181.791 276.51 183.275 270.053C183.462 269.219 183.598 268.423 183.764 267.668C183.987 267.598 184.203 267.51 184.41 267.402C184.556 267.303 184.728 267.22 184.858 267.136H184.853ZM155.795 277.885C155.795 277.286 155.826 276.671 155.826 276.078C158.081 275.307 160.513 274.427 162.976 273.427C168.087 271.322 173.028 268.825 177.755 265.96L178.218 265.668C178.739 265.345 179.223 265.033 179.687 264.72C179.699 265.438 179.925 266.137 180.338 266.725C179.817 267.371 179.296 268.089 178.739 268.845C175.281 273.568 171.094 279.905 167.324 286.357C165.528 289.367 163.846 292.382 162.294 295.283C161.685 294.768 161.121 294.204 160.606 293.596C157.576 290.039 155.8 284.701 155.8 277.885H155.795ZM177.38 233.038C177.593 235.548 177.901 238.188 178.354 240.724C179.116 245.655 180.356 250.5 182.056 255.19C182.27 255.789 182.509 256.341 182.707 256.852C182.023 257.603 181.437 258.437 180.963 259.336C180.504 259.164 180.015 258.976 179.494 258.815C175.426 257.601 171.21 256.951 166.965 256.883C164.8 256.794 162.632 256.83 160.471 256.992C160.627 256.623 160.789 256.248 160.955 255.883C164.457 247.974 169.416 240.795 175.573 234.72C176.17 234.14 176.774 233.579 177.385 233.038H177.38Z" fill="#0084FF"/>
<path d="M180.343 266.725C179.822 267.371 179.302 268.089 178.744 268.845C175.287 273.568 171.1 279.905 167.329 286.357C165.533 289.367 163.851 292.382 162.299 295.283C161.691 294.768 161.126 294.204 160.612 293.596C162.06 290.909 163.617 288.144 165.262 285.373C169.038 278.926 173.224 272.589 176.677 267.86C177.198 267.11 177.76 266.387 178.281 265.746L178.224 265.668C178.744 265.345 179.229 265.033 179.692 264.72C179.704 265.439 179.931 266.137 180.343 266.725Z" fill="#0084FF"/>
<path opacity="0.3" d="M180.343 266.725C179.822 267.371 179.302 268.089 178.744 268.845C175.287 273.568 171.1 279.905 167.329 286.357C165.533 289.367 163.851 292.382 162.299 295.283C161.691 294.768 161.126 294.204 160.612 293.596C162.06 290.909 163.617 288.144 165.262 285.373C169.038 278.926 173.224 272.589 176.677 267.86C177.198 267.11 177.76 266.387 178.281 265.746L178.224 265.668C178.744 265.345 179.229 265.033 179.692 264.72C179.704 265.439 179.931 266.137 180.343 266.725Z" fill="black"/>
<path d="M195.289 286.373C192.218 289.603 188.712 292.392 184.874 294.658C181.202 296.772 177.672 298.032 174.433 298.423C174.625 297.933 174.823 297.439 175.011 296.944C177.753 296.22 180.382 295.119 182.822 293.674C186.66 291.406 190.164 288.618 193.237 285.388C192.002 283.661 190.867 281.865 189.837 280.009C187.576 276.007 185.762 271.769 184.426 267.371C184.567 267.303 184.712 267.22 184.869 267.136C185.238 266.923 185.587 266.675 185.91 266.397H185.941C186.066 267.014 186.229 267.623 186.431 268.219C187.769 272.671 189.602 276.959 191.893 281.004C192.923 282.856 194.056 284.649 195.289 286.373V286.373Z" fill="#0084FF"/>
<path opacity="0.2" d="M195.289 286.373C192.218 289.603 188.712 292.392 184.874 294.658C181.202 296.772 177.672 298.032 174.433 298.423C174.625 297.933 174.823 297.439 175.011 296.944C177.753 296.22 180.382 295.119 182.822 293.674C186.66 291.406 190.164 288.618 193.237 285.388" fill="black"/>
<path opacity="0.3" d="M191.899 280.988C189.607 276.944 187.775 272.656 186.436 268.204C186.234 267.607 186.071 266.999 185.947 266.381H185.915C185.592 266.66 185.243 266.907 184.874 267.121C184.718 267.204 184.572 267.287 184.431 267.355C185.767 271.753 187.581 275.991 189.842 279.994C190.872 281.85 192.008 283.646 193.242 285.373L195.325 286.357C194.082 284.634 192.938 282.842 191.899 280.988V280.988Z" fill="black"/>
<path d="M199.158 264.517C196.52 263.334 193.768 262.423 190.946 261.799C190.399 261.674 189.857 261.58 189.383 261.517C189.459 261.347 189.527 261.173 189.586 260.997C192.902 261.797 196.114 262.978 199.158 264.517V264.517Z" fill="#0084FF"/>
<path d="M213.89 244.349C213.89 252.353 211.448 261.143 207.396 269.251C206.792 268.803 206.158 268.366 205.495 267.939C209.302 260.216 211.656 251.889 211.817 244.234C212.515 243.677 213.197 243.12 213.869 242.578C213.859 243.177 213.89 243.755 213.89 244.349Z" fill="#0084FF"/>
<path opacity="0.3" d="M199.158 264.517C196.52 263.334 193.768 262.423 190.946 261.799C190.399 261.674 189.857 261.58 189.383 261.517C189.459 261.347 189.527 261.173 189.586 260.997C192.902 261.797 196.114 262.978 199.158 264.517V264.517Z" fill="black"/>
<path opacity="0.2" d="M213.89 244.349C213.89 252.353 211.448 261.143 207.396 269.251C206.792 268.803 206.158 268.366 205.495 267.939C209.302 260.216 211.656 251.889 211.817 244.234C212.515 243.677 213.197 243.12 213.869 242.578C213.859 243.177 213.89 243.755 213.89 244.349Z" fill="black"/>
<path d="M209.203 228.846C207.12 231.127 204.907 233.616 202.704 236.235C198.266 241.485 194.095 246.954 190.206 252.623C189.685 253.404 189.165 254.159 188.717 254.868C188.217 254.497 187.596 254.327 186.978 254.394C187.134 253.842 187.295 253.264 187.451 252.66L188.144 251.618C192.031 245.95 196.202 240.482 200.642 235.235C202.845 232.632 205.042 230.116 207.136 227.846C206.063 226.545 204.769 225.443 203.313 224.591C205.615 225.47 207.646 226.937 209.203 228.846V228.846Z" fill="#0084FF"/>
<path opacity="0.3" d="M209.203 228.846C207.12 231.127 204.907 233.616 202.704 236.235C198.266 241.485 194.095 246.954 190.206 252.623C189.685 253.404 189.165 254.159 188.717 254.868C188.217 254.497 187.596 254.327 186.978 254.394C187.134 253.842 187.295 253.264 187.451 252.66L188.144 251.618C192.031 245.95 196.202 240.482 200.642 235.235C202.845 232.632 205.042 230.116 207.136 227.846C206.063 226.545 204.769 225.443 203.313 224.591C205.615 225.47 207.646 226.937 209.203 228.846V228.846Z" fill="black"/>
<path d="M182.712 256.852C182.028 257.603 181.442 258.437 180.968 259.336C180.51 259.164 180.02 258.976 179.499 258.815C175.431 257.601 171.215 256.951 166.97 256.883C164.805 256.794 162.637 256.831 160.476 256.992C160.633 256.623 160.794 256.248 160.961 255.883C162.273 255.836 163.596 255.841 164.908 255.883C169.153 255.956 173.368 256.608 177.437 257.82C177.958 257.992 178.442 258.18 178.906 258.341C179.378 257.443 179.962 256.608 180.645 255.857C180.452 255.336 180.208 254.816 179.989 254.196C178.296 249.502 177.06 244.656 176.297 239.724C176.01 238.073 175.776 236.376 175.578 234.694C176.172 234.121 176.774 233.564 177.385 233.022C177.599 235.532 177.906 238.172 178.359 240.708C179.121 245.639 180.361 250.484 182.062 255.175C182.275 255.789 182.515 256.341 182.712 256.852Z" fill="#0084FF"/>
<path opacity="0.3" d="M180.645 255.873C179.962 256.624 179.378 257.458 178.906 258.357C178.442 258.179 177.953 257.992 177.437 257.836C173.368 256.625 169.153 255.975 164.908 255.904C163.596 255.847 162.273 255.841 160.961 255.904C160.794 256.268 160.633 256.643 160.476 257.013C162.637 256.851 164.805 256.815 166.97 256.904C171.221 256.959 175.444 257.599 179.52 258.804C180.041 258.976 180.531 259.164 180.989 259.325C181.463 258.427 182.049 257.592 182.733 256.841L180.645 255.873Z" fill="black"/>
<path opacity="0.2" d="M180.645 255.872C180.453 255.352 180.208 254.831 179.989 254.211C178.297 249.517 177.06 244.671 176.297 239.74C176.011 238.089 175.776 236.391 175.578 234.709C176.172 234.136 176.774 233.579 177.385 233.038C177.599 235.548 177.906 238.188 178.359 240.724C179.121 245.655 180.361 250.5 182.062 255.19C182.275 255.789 182.515 256.341 182.713 256.851" fill="black"/>
</svg>
