<svg width="411" height="354" viewBox="0 0 411 354" fill="none" xmlns="http://www.w3.org/2000/svg">
<path d="M92.3882 325.464C163.138 363.224 277.848 363.224 348.598 325.464C419.348 287.704 419.358 226.464 348.598 188.704C277.838 150.944 163.138 150.934 92.3882 188.704C21.6382 226.474 21.6382 287.694 92.3882 325.464Z" fill="#EBEBEB"/>
<path d="M369.408 231.774L359.088 225.774C359.088 225.774 356.558 203.664 358.238 186.544C360.608 162.474 376.148 133.544 394.678 140.324C413.208 147.104 386.168 171.674 380.168 192.074C374.168 212.474 369.408 231.774 369.408 231.774Z" fill="#0084FF"/>
<path opacity="0.1" d="M369.408 231.774L359.088 225.774C359.088 225.774 356.558 203.664 358.238 186.544C360.608 162.474 376.148 133.544 394.678 140.324C413.208 147.104 386.168 171.674 380.168 192.074C374.168 212.474 369.408 231.774 369.408 231.774Z" fill="black"/>
<path d="M364.038 229.064C363.942 229.065 363.848 229.031 363.775 228.969C363.701 228.906 363.653 228.82 363.638 228.724C360.128 201.724 369.738 160.914 389.138 145.434C389.178 145.402 389.224 145.378 389.274 145.363C389.323 145.349 389.375 145.344 389.426 145.35C389.477 145.355 389.526 145.371 389.571 145.396C389.616 145.42 389.656 145.454 389.688 145.494C389.754 145.577 389.785 145.682 389.773 145.786C389.762 145.891 389.71 145.988 389.628 146.054C370.438 161.374 360.948 201.864 364.428 228.614C364.443 228.719 364.415 228.825 364.351 228.909C364.287 228.994 364.193 229.049 364.088 229.064H364.038Z" fill="white"/>
<path d="M374.918 236.044L367.578 231.794C367.578 231.794 366.328 216.624 373.768 198.194C380.238 182.194 396.308 168.834 404.388 171.634C412.468 174.434 412.268 180.164 408.328 186.174C404.388 192.184 380.418 206.514 374.918 236.044Z" fill="#0084FF"/>
<path d="M370.368 236.434C370.316 236.432 370.265 236.419 370.218 236.396C370.171 236.373 370.129 236.342 370.094 236.302C370.06 236.263 370.034 236.218 370.017 236.168C370.001 236.118 369.994 236.066 369.998 236.014C372.418 198.254 391.518 179.684 402.998 176.854C403.102 176.83 403.21 176.846 403.302 176.9C403.393 176.954 403.46 177.042 403.488 177.144C403.512 177.246 403.496 177.354 403.441 177.443C403.387 177.533 403.3 177.598 403.198 177.624C391.108 180.624 373.068 200.724 370.808 236.064C370.804 236.118 370.79 236.17 370.766 236.218C370.741 236.265 370.708 236.308 370.667 236.342C370.626 236.377 370.578 236.403 370.527 236.419C370.475 236.434 370.422 236.44 370.368 236.434Z" fill="white"/>
<path d="M72.1682 234.714C72.1682 234.714 73.5382 212.544 60.6582 197.344C47.7782 182.144 31.0082 182.204 25.4582 185.034C19.9082 187.864 16.1782 195.954 25.7282 201.744C35.2782 207.534 55.5882 219.124 58.9682 229.464L72.1682 234.714Z" fill="#0084FF"/>
<path opacity="0.1" d="M72.1682 234.714C72.1682 234.714 73.5382 212.544 60.6582 197.344C47.7782 182.144 31.0082 182.204 25.4582 185.034C19.9082 187.864 16.1782 195.954 25.7282 201.744C35.2782 207.534 55.5882 219.124 58.9682 229.464L72.1682 234.714Z" fill="black"/>
<path d="M66.1082 229.164C65.9845 229.163 65.8655 229.116 65.7735 229.033C65.6815 228.951 65.6228 228.837 65.6082 228.714C62.9582 204.184 38.4382 190.594 28.6682 189.054C28.6025 189.044 28.5395 189.022 28.4826 188.987C28.4257 188.953 28.3761 188.908 28.3366 188.855C28.2972 188.801 28.2686 188.741 28.2526 188.676C28.2365 188.612 28.2334 188.545 28.2432 188.479C28.2531 188.414 28.2757 188.35 28.31 188.294C28.3442 188.237 28.3893 188.187 28.4427 188.148C28.4961 188.108 28.5567 188.08 28.6212 188.064C28.6856 188.048 28.7525 188.044 28.8182 188.054C38.8182 189.624 63.8882 203.524 66.6082 228.604C66.6151 228.67 66.6089 228.736 66.59 228.8C66.5711 228.863 66.5398 228.922 66.4979 228.973C66.4561 229.024 66.4045 229.067 66.3462 229.098C66.2879 229.129 66.224 229.148 66.1582 229.154L66.1082 229.164Z" fill="white"/>
<path d="M61.3382 223.534C58.1082 216.174 54.4582 212.874 43.9582 214.634C33.4582 216.394 34.9582 216.124 22.1082 212.834C16.6882 211.454 10.5982 211.234 5.39822 213.574C1.00822 215.574 -2.27178 219.574 1.97822 223.834C6.75822 228.594 13.8882 230.224 19.1682 234.414C20.366 235.261 21.3183 236.41 21.9282 237.744C23.3182 241.284 20.5382 245.274 21.3482 248.984C22.1582 252.694 26.0582 254.674 29.7182 254.914C33.3782 255.154 36.9882 254.054 40.6382 253.634C44.2882 253.214 48.3882 253.634 50.9082 256.344C53.6082 259.214 53.6782 263.804 56.1882 266.854C59.9482 271.424 69.1882 272.694 74.1882 269.854L87.2782 262.304C95.9282 250.644 82.2782 241.404 75.1282 232.354C71.6582 227.944 63.2782 227.964 61.3382 223.534Z" fill="#0084FF"/>
<path d="M79.1682 255.264C79.083 255.266 78.9989 255.245 78.925 255.202C78.851 255.16 78.7899 255.099 78.7482 255.024C63.8182 230.834 23.1682 218.594 8.7882 217.594C8.6573 217.584 8.53567 217.523 8.4496 217.423C8.36353 217.324 8.31993 217.195 8.32821 217.064C8.33845 216.932 8.39943 216.81 8.49829 216.722C8.59715 216.634 8.72618 216.589 8.8582 216.594C23.4282 217.594 64.4682 230.014 79.5982 254.524C79.6652 254.639 79.6849 254.775 79.6532 254.904C79.6214 255.033 79.5407 255.144 79.4282 255.214C79.3464 255.25 79.2575 255.267 79.1682 255.264V255.264Z" fill="white"/>
<path d="M31.8782 243.864C31.8003 243.866 31.7232 243.848 31.6535 243.813C31.5838 243.779 31.5237 243.727 31.4782 243.664C31.3987 243.558 31.3645 243.425 31.3833 243.293C31.402 243.162 31.4722 243.044 31.5782 242.964C32.0982 242.574 44.4982 233.474 56.5782 233.294C56.6434 233.293 56.7082 233.304 56.7688 233.328C56.8294 233.352 56.8846 233.388 56.9312 233.434C56.9778 233.48 57.0148 233.534 57.04 233.594C57.0652 233.654 57.0783 233.719 57.0782 233.784C57.0796 233.85 57.0679 233.915 57.044 233.976C57.0201 234.037 56.9844 234.093 56.9389 234.141C56.8934 234.188 56.839 234.226 56.7788 234.252C56.7187 234.279 56.6539 234.293 56.5882 234.294C44.8582 234.464 32.3282 243.674 32.1982 243.764C32.1079 243.836 31.9937 243.872 31.8782 243.864V243.864Z" fill="white"/>
<path d="M78.2382 263.764C78.3451 265.219 78.7927 266.627 79.545 267.876C80.2972 269.125 81.3329 270.18 82.5682 270.954L203.898 341.004C205.24 341.685 206.724 342.04 208.228 342.04C209.733 342.04 211.216 341.685 212.558 341.004L378.558 245.154C379.867 244.464 380.962 243.429 381.726 242.162C382.49 240.895 382.893 239.444 382.893 237.964C382.893 236.485 382.49 235.033 381.726 233.766C380.962 232.499 379.867 231.465 378.558 230.774L257.238 160.774C255.896 160.094 254.413 159.739 252.908 159.739C251.404 159.739 249.92 160.094 248.578 160.774L82.5682 256.594C81.3355 257.367 80.3014 258.418 79.5493 259.664C78.7972 260.909 78.3481 262.314 78.2382 263.764V263.764Z" fill="#37474F"/>
<path d="M128.298 230.174L82.5682 256.594C81.2598 257.285 80.1646 258.319 79.4007 259.586C78.6367 260.853 78.233 262.305 78.233 263.784C78.233 265.264 78.6367 266.715 79.4007 267.982C80.1646 269.249 81.2598 270.284 82.5682 270.974L203.898 341.024C205.233 341.721 206.723 342.066 208.228 342.024V230.174H128.298Z" fill="#263238"/>
<path d="M74.1682 256.734C72.9631 255.913 71.9677 254.82 71.2625 253.543C70.5573 252.266 70.1619 250.842 70.1082 249.384V104.594C70.1887 103.092 70.6228 101.629 71.3753 100.326C72.1277 99.0226 73.1771 97.9154 74.4382 97.0943L240.438 1.24426C241.691 0.45831 243.135 0.0286263 244.614 0.00138139C246.092 -0.0258635 247.551 0.350356 248.832 1.08962C250.113 1.82889 251.169 2.90326 251.885 4.1973C252.601 5.49133 252.952 6.95611 252.898 8.43426V153.234C252.816 154.737 252.381 156.198 251.629 157.501C250.877 158.804 249.828 159.912 248.568 160.734L82.5682 256.594C81.2773 257.275 79.8442 257.643 78.3849 257.667C76.9257 257.691 75.4811 257.372 74.1682 256.734V256.734Z" fill="#455A64"/>
<path d="M90.4282 111.324L71.3782 100.324C70.6196 101.622 70.2032 103.091 70.1682 104.594V249.384C70.2219 250.842 70.6173 252.266 71.3225 253.543C72.0277 254.82 73.023 255.913 74.2282 256.734C75.5414 257.367 76.9849 257.682 78.4423 257.654C79.8997 257.627 81.3301 257.257 82.6182 256.574L101.558 245.644L90.4282 111.324Z" fill="#263238"/>
<path d="M78.2382 109.294V254.074C78.2382 256.834 80.1782 257.954 82.5682 256.574L248.568 160.734C249.828 159.912 250.877 158.805 251.629 157.502C252.381 156.199 252.816 154.737 252.898 153.234V8.44434C252.898 5.68434 250.958 4.56434 248.568 5.94434L82.5682 101.794C81.3071 102.615 80.2577 103.723 79.5053 105.026C78.7529 106.329 78.3187 107.792 78.2382 109.294V109.294Z" fill="#37474F"/>
<path d="M82.5682 261.594L203.898 331.594C205.24 332.275 206.724 332.63 208.228 332.63C209.733 332.63 211.216 332.275 212.558 331.594L378.558 235.744C380.958 234.364 380.958 232.124 378.558 230.744L257.238 160.744C255.896 160.064 254.413 159.709 252.908 159.709C251.403 159.709 249.92 160.064 248.578 160.744L82.5682 256.594C80.1682 257.954 80.1682 260.194 82.5682 261.594Z" fill="#455A64"/>
<path d="M84.8982 109.824L246.248 16.6742C247.678 15.8442 248.848 16.5142 248.848 18.1742V143.504C248.798 144.406 248.536 145.282 248.085 146.064C247.633 146.846 247.004 147.51 246.248 148.004L84.8982 241.154C83.4582 241.984 82.2982 241.314 82.2982 239.654V114.324C82.3463 113.422 82.6069 112.545 83.0587 111.762C83.5105 110.98 84.1409 110.316 84.8982 109.824V109.824Z" fill="white"/>
<path d="M96.6482 257.824L250.738 168.824C251.409 168.484 252.151 168.307 252.903 168.307C253.655 168.307 254.397 168.484 255.068 168.824L262.958 173.374C263.219 173.463 263.446 173.631 263.607 173.855C263.768 174.08 263.854 174.348 263.854 174.624C263.854 174.9 263.768 175.169 263.607 175.393C263.446 175.617 263.219 175.786 262.958 175.874L108.838 264.864C108.167 265.204 107.425 265.382 106.673 265.382C105.921 265.382 105.179 265.204 104.508 264.864L96.6482 260.324C96.387 260.236 96.1601 260.067 95.9995 259.843C95.8388 259.619 95.7524 259.35 95.7524 259.074C95.7524 258.799 95.8388 258.53 95.9995 258.305C96.1601 258.081 96.387 257.913 96.6482 257.824V257.824Z" fill="#263238"/>
<path d="M116.968 269.594L271.048 180.594C271.721 180.254 272.464 180.077 273.218 180.077C273.972 180.077 274.715 180.254 275.388 180.594L323.858 208.594C324.119 208.683 324.346 208.851 324.507 209.075C324.668 209.299 324.754 209.568 324.754 209.844C324.754 210.12 324.668 210.389 324.507 210.613C324.346 210.837 324.119 211.006 323.858 211.094L169.948 299.914C169.275 300.254 168.532 300.432 167.778 300.432C167.024 300.432 166.281 300.254 165.608 299.914L116.968 272.044C116.72 271.95 116.506 271.782 116.354 271.564C116.203 271.345 116.122 271.085 116.122 270.819C116.122 270.553 116.203 270.294 116.354 270.075C116.506 269.856 116.72 269.688 116.968 269.594V269.594Z" fill="#263238"/>
<path d="M255.088 220.594L259.918 217.804C260.118 217.684 260.108 217.494 259.918 217.364L254.338 214.144C254.219 214.083 254.087 214.051 253.953 214.051C253.819 214.051 253.687 214.083 253.568 214.144L248.748 216.934C248.538 217.054 248.548 217.244 248.748 217.374L254.328 220.594C254.446 220.654 254.576 220.685 254.708 220.685C254.84 220.685 254.97 220.654 255.088 220.594ZM245.568 209.594L240.748 212.384C240.538 212.494 240.548 212.694 240.748 212.824L246.328 216.044C246.447 216.106 246.579 216.138 246.713 216.138C246.847 216.138 246.979 216.106 247.098 216.044L251.928 213.254C252.128 213.134 252.118 212.934 251.928 212.814L246.338 209.594C246.219 209.533 246.087 209.501 245.953 209.501C245.819 209.501 245.687 209.533 245.568 209.594ZM229.988 218.594L221.818 223.304C221.618 223.424 221.628 223.624 221.818 223.754L227.398 226.974C227.517 227.036 227.649 227.068 227.783 227.068C227.917 227.068 228.049 227.036 228.168 226.974L236.328 222.264C236.538 222.144 236.518 221.944 236.328 221.824L230.748 218.594C230.631 218.533 230.501 218.501 230.368 218.501C230.236 218.501 230.105 218.533 229.988 218.594ZM238.518 213.664L233.698 216.454C233.488 216.574 233.498 216.774 233.698 216.894L239.278 220.114C239.397 220.176 239.529 220.208 239.663 220.208C239.797 220.208 239.929 220.176 240.048 220.114L244.878 217.324C245.078 217.204 245.068 217.014 244.878 216.884L239.288 213.594C239.169 213.533 239.037 213.501 238.903 213.501C238.769 213.501 238.637 213.533 238.518 213.594V213.664ZM219.588 224.594L214.768 227.374C214.558 227.494 214.578 227.694 214.768 227.824L220.348 231.044C220.466 231.103 220.596 231.134 220.728 231.134C220.86 231.134 220.99 231.103 221.108 231.044L225.938 228.254C226.138 228.134 226.128 227.934 225.938 227.814L220.358 224.594C220.239 224.533 220.107 224.501 219.973 224.501C219.839 224.501 219.707 224.533 219.588 224.594V224.594ZM212.588 228.664L207.768 231.454C207.558 231.564 207.578 231.764 207.768 231.894L213.348 235.114C213.467 235.176 213.599 235.208 213.733 235.208C213.867 235.208 213.999 235.176 214.118 235.114L218.948 232.324C219.148 232.204 219.138 232.004 218.948 231.884L213.308 228.594C213.189 228.533 213.057 228.501 212.923 228.501C212.789 228.501 212.657 228.533 212.538 228.594L212.588 228.664ZM234.538 241.764L239.358 238.974C239.568 238.854 239.548 238.664 239.358 238.534L233.778 235.314C233.661 235.253 233.531 235.221 233.398 235.221C233.266 235.221 233.135 235.253 233.018 235.314L228.188 238.104C227.988 238.224 227.998 238.414 228.188 238.544L233.768 241.764C233.884 241.81 234.009 241.829 234.134 241.82C234.258 241.812 234.379 241.776 234.488 241.714L234.538 241.764ZM227.478 245.834L232.308 243.044C232.508 242.934 232.498 242.734 232.308 242.604L226.728 239.384C226.609 239.323 226.477 239.291 226.343 239.291C226.209 239.291 226.077 239.323 225.958 239.384L221.138 242.174C220.928 242.294 220.948 242.494 221.138 242.614L226.718 245.834C226.833 245.88 226.956 245.899 227.079 245.89C227.202 245.882 227.321 245.845 227.428 245.784L227.478 245.834ZM220.428 249.904L225.258 247.124C225.458 247.004 225.448 246.804 225.258 246.674L219.678 243.454C219.558 243.395 219.427 243.364 219.293 243.364C219.16 243.364 219.028 243.395 218.908 243.454L214.088 246.244C213.878 246.364 213.898 246.564 214.088 246.684L219.658 249.904C219.774 249.95 219.899 249.969 220.024 249.961C220.148 249.952 220.269 249.916 220.378 249.854L220.428 249.904ZM213.428 253.974L218.258 251.194C218.458 251.074 218.448 250.874 218.258 250.744L212.678 247.524C212.559 247.463 212.427 247.431 212.293 247.431C212.159 247.431 212.027 247.463 211.908 247.524L207.088 250.304C206.878 250.424 206.888 250.624 207.088 250.754L212.668 253.974C212.886 254.045 213.123 254.027 213.328 253.924L213.428 253.974ZM248.138 224.734L252.968 221.944C253.168 221.834 253.158 221.634 252.968 221.504L247.388 218.284C247.268 218.225 247.137 218.194 247.003 218.194C246.87 218.194 246.738 218.225 246.618 218.284L241.798 221.074C241.588 221.194 241.598 221.394 241.798 221.514L247.378 224.734C247.486 224.771 247.6 224.786 247.713 224.777C247.827 224.768 247.937 224.737 248.038 224.684L248.138 224.734ZM241.638 237.734L252.398 231.514C252.598 231.404 252.588 231.204 252.398 231.074L238.848 223.254C238.729 223.193 238.597 223.161 238.463 223.161C238.329 223.161 238.197 223.193 238.078 223.254L232.518 226.474C232.308 226.584 232.328 226.784 232.518 226.914L239.698 231.054C239.918 231.184 239.928 231.384 239.698 231.504L235.168 233.964C234.968 234.074 234.978 234.274 235.168 234.404L240.768 237.594C240.883 237.663 241.013 237.704 241.147 237.713C241.281 237.722 241.415 237.698 241.538 237.644L241.638 237.734ZM205.588 232.734L200.768 235.524C200.558 235.644 200.568 235.834 200.768 235.964L206.348 239.184C206.467 239.246 206.599 239.278 206.733 239.278C206.867 239.278 206.999 239.246 207.118 239.184L211.948 236.394C212.148 236.274 212.138 236.084 211.948 235.954L206.368 232.734C206.241 232.645 206.091 232.593 205.935 232.585C205.78 232.576 205.625 232.61 205.488 232.684L205.588 232.734ZM198.588 236.804L193.608 239.594C193.408 239.714 193.418 239.914 193.608 240.034L199.188 243.254C199.307 243.316 199.439 243.348 199.573 243.348C199.707 243.348 199.839 243.316 199.958 243.254L204.788 240.464C204.988 240.354 204.978 240.154 204.788 240.024L199.168 236.774C199.056 236.716 198.932 236.684 198.805 236.681C198.679 236.677 198.554 236.702 198.438 236.754L198.588 236.804ZM163.168 282.404C163.287 282.466 163.419 282.498 163.553 282.498C163.687 282.498 163.819 282.466 163.938 282.404L168.768 279.614C168.968 279.504 168.958 279.304 168.768 279.174L163.168 275.974C163.049 275.913 162.917 275.881 162.783 275.881C162.649 275.881 162.517 275.913 162.398 275.974L157.578 278.764C157.368 278.884 157.378 279.084 157.578 279.204L163.168 282.404ZM141.998 269.324L137.168 272.114C136.968 272.234 136.978 272.424 137.168 272.554L142.748 275.774C142.867 275.836 142.999 275.868 143.133 275.868C143.267 275.868 143.399 275.836 143.518 275.774L148.348 272.984C148.548 272.864 148.538 272.674 148.348 272.544L142.768 269.324C142.653 269.268 142.526 269.238 142.398 269.238C142.27 269.238 142.143 269.268 142.028 269.324H141.998ZM153.348 278.874C153.467 278.936 153.599 278.968 153.733 278.968C153.867 278.968 153.999 278.936 154.118 278.874L158.938 276.084C159.148 275.974 159.128 275.774 158.938 275.644L153.368 272.424C153.249 272.363 153.117 272.331 152.983 272.331C152.849 272.331 152.717 272.363 152.598 272.424L147.768 275.214C147.568 275.334 147.578 275.534 147.768 275.654L153.348 278.874ZM175.618 284.874L180.448 282.084C180.648 281.964 180.638 281.774 180.448 281.644L174.868 278.424C174.749 278.363 174.617 278.331 174.483 278.331C174.349 278.331 174.217 278.363 174.098 278.424L169.278 281.214C169.068 281.324 169.088 281.524 169.278 281.654L174.848 284.874C174.97 284.942 175.107 284.979 175.247 284.981C175.387 284.982 175.525 284.949 175.648 284.884L175.618 284.874ZM167.798 288.874C167.917 288.936 168.049 288.968 168.183 288.968C168.317 288.968 168.449 288.936 168.568 288.874L173.398 286.084C173.598 285.974 173.588 285.774 173.398 285.644L167.818 282.424C167.699 282.363 167.567 282.331 167.433 282.331C167.299 282.331 167.167 282.363 167.048 282.424L162.228 285.214C162.018 285.334 162.028 285.534 162.228 285.654L167.798 288.874ZM149.048 265.194L144.228 267.984C144.018 268.094 144.028 268.294 144.228 268.424L149.808 271.644C149.927 271.706 150.059 271.738 150.193 271.738C150.327 271.738 150.459 271.706 150.578 271.644L155.408 268.854C155.608 268.734 155.598 268.534 155.408 268.414L149.828 265.194C149.707 265.145 149.576 265.125 149.446 265.136C149.316 265.146 149.19 265.187 149.078 265.254L149.048 265.194ZM184.308 244.844L179.478 247.624C179.278 247.744 179.288 247.944 179.478 248.064L185.058 251.294C185.178 251.353 185.31 251.384 185.443 251.384C185.577 251.384 185.708 251.353 185.828 251.294L190.648 248.514C190.858 248.394 190.848 248.194 190.648 248.064L185.068 244.844C184.95 244.798 184.823 244.78 184.696 244.79C184.57 244.801 184.447 244.84 184.338 244.904L184.308 244.844ZM156.168 261.184L151.348 263.964C151.138 264.084 151.148 264.284 151.348 264.414L156.928 267.634C157.048 267.693 157.18 267.724 157.313 267.724C157.447 267.724 157.578 267.693 157.698 267.634L162.528 264.844C162.728 264.724 162.718 264.524 162.528 264.404L156.948 261.174C156.826 261.115 156.692 261.085 156.557 261.087C156.422 261.089 156.288 261.122 156.168 261.184V261.184ZM191.428 240.824L186.558 243.594C186.358 243.714 186.368 243.914 186.558 244.034L192.138 247.254C192.257 247.316 192.389 247.348 192.523 247.348C192.657 247.348 192.789 247.316 192.908 247.254L197.728 244.474C197.938 244.354 197.928 244.154 197.728 244.024L192.168 240.844C192.049 240.78 191.916 240.745 191.781 240.742C191.645 240.738 191.511 240.767 191.388 240.824H191.428ZM177.328 248.974L172.498 251.754C172.298 251.874 172.308 252.074 172.498 252.204L178.078 255.424C178.198 255.483 178.33 255.514 178.463 255.514C178.597 255.514 178.728 255.483 178.848 255.424L183.668 252.644C183.878 252.524 183.858 252.324 183.668 252.194L178.098 248.974C177.973 248.909 177.834 248.874 177.693 248.874C177.552 248.874 177.413 248.909 177.288 248.974H177.328ZM170.268 253.044L165.448 255.824C165.238 255.944 165.258 256.144 165.448 256.274L171.028 259.494C171.148 259.553 171.28 259.584 171.413 259.584C171.547 259.584 171.678 259.553 171.798 259.494L176.618 256.714C176.818 256.594 176.808 256.394 176.618 256.264L171.038 253.044C170.913 252.979 170.774 252.944 170.633 252.944C170.492 252.944 170.353 252.979 170.228 253.044H170.268ZM163.168 257.114L158.348 259.894C158.138 260.014 158.158 260.214 158.348 260.344L163.918 263.564C164.037 263.626 164.169 263.658 164.303 263.658C164.437 263.658 164.569 263.626 164.688 263.564L169.518 260.784C169.718 260.664 169.708 260.464 169.518 260.334L163.938 257.114C163.818 257.055 163.687 257.024 163.553 257.024C163.42 257.024 163.288 257.055 163.168 257.114ZM199.218 262.114L204.038 259.334C204.248 259.214 204.238 259.014 204.038 258.884L198.448 255.594C198.328 255.535 198.197 255.504 198.063 255.504C197.93 255.504 197.798 255.535 197.678 255.594L192.848 258.374C192.648 258.494 192.658 258.694 192.848 258.824L198.428 262.044C198.549 262.114 198.686 262.152 198.826 262.156C198.965 262.159 199.104 262.128 199.228 262.064L199.218 262.114ZM261.168 200.594L256.338 203.384C256.138 203.504 256.148 203.694 256.338 203.824L261.918 207.044C262.037 207.106 262.169 207.138 262.303 207.138C262.437 207.138 262.569 207.106 262.688 207.044L267.508 204.254C267.718 204.134 267.708 203.944 267.508 203.814L261.928 200.594C261.81 200.535 261.68 200.503 261.548 200.503C261.416 200.503 261.286 200.535 261.168 200.594ZM252.628 205.524L247.808 208.314C247.598 208.424 247.618 208.624 247.808 208.754L253.378 211.974C253.498 212.033 253.63 212.064 253.763 212.064C253.897 212.064 254.028 212.033 254.148 211.974L258.978 209.184C259.178 209.064 259.168 208.864 258.978 208.744L253.398 205.524C253.282 205.453 253.15 205.412 253.014 205.403C252.878 205.394 252.743 205.419 252.618 205.474L252.628 205.524ZM268.218 196.524L263.398 199.314C263.188 199.424 263.198 199.624 263.398 199.754L268.978 202.974C269.097 203.036 269.229 203.068 269.363 203.068C269.497 203.068 269.629 203.036 269.748 202.974L274.578 200.184C274.778 200.064 274.768 199.864 274.578 199.744L268.998 196.524C268.876 196.445 268.735 196.398 268.59 196.389C268.444 196.381 268.299 196.41 268.168 196.474L268.218 196.524ZM231.718 234.164L236.548 231.374C236.748 231.254 236.738 231.054 236.548 230.934L230.968 227.714C230.849 227.653 230.717 227.621 230.583 227.621C230.449 227.621 230.317 227.653 230.198 227.714L225.378 230.504C225.168 230.614 225.178 230.814 225.378 230.944L230.958 234.164C231.078 234.215 231.209 234.236 231.339 234.228C231.469 234.219 231.596 234.18 231.708 234.114L231.718 234.164ZM276.038 192.474C275.919 192.413 275.787 192.381 275.653 192.381C275.519 192.381 275.387 192.413 275.268 192.474L270.448 195.264C270.238 195.374 270.248 195.574 270.448 195.704L276.028 198.924C276.148 198.983 276.28 199.014 276.413 199.014C276.547 199.014 276.678 198.983 276.798 198.924L281.628 196.134C281.828 196.014 281.818 195.814 281.628 195.694L276.038 192.474ZM206.278 257.994L211.108 255.214C211.308 255.094 211.298 254.894 211.108 254.764L205.498 251.594C205.379 251.533 205.247 251.501 205.113 251.501C204.979 251.501 204.847 251.533 204.728 251.594L199.908 254.374C199.698 254.494 199.708 254.694 199.908 254.824L205.488 258.044C205.614 258.099 205.752 258.123 205.889 258.114C206.027 258.106 206.16 258.064 206.278 257.994V257.994ZM292.748 208.074L297.578 205.284C297.778 205.174 297.768 204.974 297.578 204.844L291.968 201.594C291.849 201.533 291.717 201.501 291.583 201.501C291.449 201.501 291.317 201.533 291.198 201.594L286.378 204.384C286.168 204.504 286.178 204.704 286.378 204.824L291.958 208.044C292.077 208.114 292.212 208.153 292.349 208.158C292.487 208.163 292.624 208.134 292.748 208.074V208.074ZM277.748 207.544L282.578 204.754C282.778 204.634 282.768 204.444 282.578 204.314L276.998 201.094C276.879 201.033 276.747 201.001 276.613 201.001C276.479 201.001 276.347 201.033 276.228 201.094L271.408 203.884C271.198 204.004 271.208 204.194 271.408 204.324L276.988 207.544C277.099 207.609 277.224 207.647 277.352 207.655C277.481 207.664 277.609 207.643 277.728 207.594L277.748 207.544ZM284.018 197.024C283.899 196.963 283.767 196.931 283.633 196.931C283.499 196.931 283.367 196.963 283.248 197.024L278.428 199.814C278.218 199.924 278.228 200.124 278.428 200.254L284.008 203.474C284.127 203.536 284.259 203.568 284.393 203.568C284.527 203.568 284.659 203.536 284.778 203.474L289.608 200.684C289.808 200.564 289.798 200.364 289.608 200.244L284.018 197.024ZM285.508 196.164L299.048 203.984C299.167 204.046 299.299 204.078 299.433 204.078C299.567 204.078 299.699 204.046 299.818 203.984L304.648 201.194C304.848 201.074 304.838 200.884 304.648 200.754L291.098 192.934C290.979 192.873 290.847 192.841 290.713 192.841C290.579 192.841 290.447 192.873 290.328 192.934L285.508 195.724C285.248 195.834 285.268 196.034 285.488 196.164H285.508ZM269.148 205.164L264.318 207.954C264.118 208.074 264.128 208.274 264.318 208.394L269.898 211.614C270.017 211.676 270.149 211.708 270.283 211.708C270.417 211.708 270.549 211.676 270.668 211.614L275.488 208.824C275.698 208.714 275.688 208.514 275.488 208.384L269.908 205.164C269.795 205.105 269.669 205.072 269.54 205.068C269.412 205.065 269.285 205.091 269.168 205.144L269.148 205.164ZM216.078 235.804L211.228 238.594C211.028 238.714 211.038 238.914 211.228 239.034L216.808 242.254C216.927 242.316 217.059 242.348 217.193 242.348C217.327 242.348 217.459 242.316 217.578 242.254L222.398 239.464C222.608 239.354 222.598 239.154 222.398 239.024L216.818 235.804C216.702 235.741 216.573 235.707 216.441 235.703C216.309 235.7 216.178 235.728 216.058 235.784L216.078 235.804ZM284.948 212.144C285.067 212.206 285.199 212.238 285.333 212.238C285.467 212.238 285.599 212.206 285.718 212.144L290.548 209.354C290.748 209.244 290.738 209.044 290.548 208.914L284.968 205.694C284.848 205.635 284.717 205.604 284.583 205.604C284.45 205.604 284.318 205.635 284.198 205.694L279.378 208.484C279.168 208.604 279.178 208.804 279.378 208.924L284.948 212.144ZM223.128 231.734L218.308 234.524C218.098 234.644 218.108 234.834 218.308 234.964L223.888 238.184C224.007 238.246 224.139 238.278 224.273 238.278C224.407 238.278 224.539 238.246 224.658 238.184L229.488 235.394C229.688 235.274 229.678 235.084 229.488 234.954L223.908 231.734C223.787 231.665 223.65 231.626 223.511 231.623C223.371 231.619 223.233 231.651 223.108 231.714L223.128 231.734ZM170.268 278.354C170.387 278.416 170.519 278.448 170.653 278.448C170.787 278.448 170.919 278.416 171.038 278.354L175.868 275.564C176.068 275.444 176.058 275.254 175.868 275.124L170.288 271.904C170.169 271.843 170.037 271.811 169.903 271.811C169.769 271.811 169.637 271.843 169.518 271.904L164.698 274.694C164.488 274.814 164.508 275.004 164.698 275.134L170.268 278.354ZM159.668 268.354L154.838 271.144C154.638 271.264 154.648 271.454 154.838 271.584L160.418 274.804C160.537 274.866 160.669 274.898 160.803 274.898C160.937 274.898 161.069 274.866 161.188 274.804L166.008 272.014C166.218 271.894 166.208 271.704 166.008 271.574L160.428 268.354C160.308 268.291 160.174 268.258 160.038 268.258C159.902 268.258 159.769 268.291 159.648 268.354H159.668ZM178.098 274.284L182.918 271.494C183.118 271.374 183.108 271.174 182.918 271.054L177.338 267.834C177.219 267.773 177.087 267.741 176.953 267.741C176.819 267.741 176.687 267.773 176.568 267.834L171.698 270.594C171.498 270.704 171.508 270.904 171.698 271.034L177.278 274.254C177.399 274.325 177.535 274.365 177.674 274.371C177.814 274.376 177.953 274.346 178.078 274.284H178.098ZM185.148 270.214L189.968 267.424C190.178 267.304 190.158 267.104 189.968 266.984L184.398 263.764C184.279 263.703 184.147 263.671 184.013 263.671C183.879 263.671 183.747 263.703 183.628 263.764L178.798 266.544C178.598 266.664 178.608 266.864 178.798 266.994L184.378 270.214C184.501 270.277 184.636 270.309 184.773 270.309C184.91 270.309 185.046 270.277 185.168 270.214H185.148ZM192.148 266.134L196.968 263.354C197.178 263.234 197.168 263.034 196.968 262.914L191.388 259.684C191.268 259.625 191.137 259.594 191.003 259.594C190.87 259.594 190.738 259.625 190.618 259.684L185.788 262.464C185.588 262.584 185.598 262.784 185.788 262.914L191.368 266.134C191.491 266.201 191.629 266.236 191.768 266.236C191.908 266.236 192.045 266.201 192.168 266.134H192.148ZM166.668 264.284L161.838 267.074C161.638 267.184 161.648 267.384 161.838 267.514L167.418 270.734C167.537 270.796 167.669 270.828 167.803 270.828C167.937 270.828 168.069 270.796 168.188 270.734L173.018 267.944C173.218 267.824 173.208 267.624 173.018 267.504L167.438 264.284C167.323 264.228 167.196 264.198 167.068 264.198C166.94 264.198 166.813 264.228 166.698 264.284H166.668ZM173.718 260.214L168.898 262.994C168.688 263.114 168.698 263.314 168.898 263.444L174.478 266.664C174.598 266.723 174.73 266.754 174.863 266.754C174.997 266.754 175.128 266.723 175.248 266.664L180.168 263.894C180.368 263.774 180.358 263.574 180.168 263.454L174.588 260.234C174.462 260.157 174.318 260.115 174.171 260.112C174.023 260.108 173.878 260.144 173.748 260.214H173.718ZM201.928 243.934L197.168 246.714C196.968 246.834 196.978 247.034 197.168 247.164L202.748 250.384C202.868 250.443 203 250.474 203.133 250.474C203.267 250.474 203.398 250.443 203.518 250.384L208.338 247.604C208.548 247.484 208.528 247.284 208.338 247.154L202.768 243.934C202.644 243.866 202.505 243.83 202.363 243.83C202.222 243.83 202.082 243.866 201.958 243.934H201.928ZM194.868 248.004L190.048 250.784C189.848 250.904 189.858 251.104 190.048 251.234L195.628 254.454C195.748 254.513 195.88 254.544 196.013 254.544C196.147 254.544 196.278 254.513 196.398 254.454L201.218 251.674C201.428 251.554 201.408 251.354 201.218 251.224L195.638 248.004C195.522 247.95 195.396 247.922 195.268 247.922C195.14 247.922 195.014 247.95 194.898 248.004H194.868ZM208.978 239.854L204.168 242.644C203.968 242.764 203.978 242.964 204.168 243.084L209.748 246.314C209.868 246.373 210 246.404 210.133 246.404C210.267 246.404 210.398 246.373 210.518 246.314L215.338 243.524C215.548 243.414 215.538 243.214 215.338 243.084L209.758 239.864C209.642 239.807 209.514 239.776 209.384 239.774C209.255 239.773 209.126 239.8 209.008 239.854H208.978ZM180.768 256.144L175.948 258.924C175.738 259.044 175.748 259.244 175.948 259.374L181.528 262.594C181.648 262.653 181.78 262.684 181.913 262.684C182.047 262.684 182.178 262.653 182.298 262.594L187.128 259.804C187.328 259.684 187.318 259.484 187.128 259.364L181.548 256.134C181.43 256.08 181.302 256.053 181.172 256.054C181.042 256.056 180.915 256.087 180.798 256.144H180.768ZM187.818 252.074L182.998 254.854C182.788 254.974 182.808 255.174 182.998 255.304L188.578 258.524C188.695 258.586 188.826 258.618 188.958 258.618C189.091 258.618 189.221 258.586 189.338 258.524L194.168 255.744C194.368 255.624 194.358 255.424 194.168 255.294L188.588 252.074C188.472 252.02 188.346 251.992 188.218 251.992C188.09 251.992 187.964 252.02 187.848 252.074H187.818ZM182.678 280.814L187.498 278.024C187.698 277.904 187.688 277.704 187.498 277.584L181.918 274.364C181.799 274.303 181.667 274.271 181.533 274.271C181.399 274.271 181.267 274.303 181.148 274.364L176.328 277.154C176.118 277.264 176.138 277.464 176.328 277.594L181.908 280.814C182.031 280.881 182.168 280.916 182.308 280.916C182.448 280.916 182.585 280.881 182.708 280.814H182.678ZM141.328 276.594L135.748 273.374C135.629 273.313 135.497 273.281 135.363 273.281C135.229 273.281 135.097 273.313 134.978 273.374L130.168 276.184C129.968 276.304 129.978 276.494 130.168 276.624L135.748 279.844C135.867 279.906 135.999 279.938 136.133 279.938C136.267 279.938 136.399 279.906 136.518 279.844L141.338 277.054C141.558 276.964 141.548 276.764 141.328 276.594ZM151.888 279.694L146.308 276.474C146.19 276.415 146.06 276.385 145.928 276.385C145.796 276.385 145.666 276.415 145.548 276.474L138.168 280.784C137.968 280.904 137.978 281.104 138.168 281.224L143.748 284.444C143.867 284.506 143.999 284.538 144.133 284.538C144.267 284.538 144.399 284.506 144.518 284.444L151.938 280.164C152.168 280.064 152.108 279.864 151.888 279.734V279.694ZM132.768 270.364L127.168 267.184C127.049 267.123 126.917 267.091 126.783 267.091C126.649 267.091 126.517 267.123 126.398 267.184L120.478 270.594C120.278 270.714 120.288 270.914 120.478 271.044L126.058 274.264C126.177 274.326 126.309 274.358 126.443 274.358C126.577 274.358 126.709 274.326 126.828 274.264L132.758 270.844C132.998 270.734 132.988 270.534 132.768 270.404V270.364ZM137.318 267.734C137.437 267.796 137.569 267.828 137.703 267.828C137.837 267.828 137.969 267.796 138.088 267.734L142.908 264.944C143.118 264.834 143.108 264.634 142.908 264.504L137.328 261.284C137.209 261.223 137.077 261.191 136.943 261.191C136.809 261.191 136.677 261.223 136.558 261.284L131.728 264.074C131.528 264.194 131.538 264.394 131.728 264.514L137.318 267.734ZM161.718 283.224L156.168 280.044C156.048 279.985 155.917 279.954 155.783 279.954C155.65 279.954 155.518 279.985 155.398 280.044L146.118 285.404C145.918 285.524 145.928 285.724 146.118 285.844L151.698 289.074C151.818 289.133 151.95 289.164 152.083 289.164C152.217 289.164 152.348 289.133 152.468 289.074L161.748 283.714C161.948 283.594 161.938 283.394 161.718 283.264V283.224ZM166.348 289.754L160.768 286.594C160.649 286.533 160.517 286.501 160.383 286.501C160.249 286.501 160.117 286.533 159.998 286.594L154.058 290.024C153.858 290.144 153.868 290.344 154.058 290.474L159.638 293.694C159.758 293.753 159.89 293.784 160.023 293.784C160.157 293.784 160.288 293.753 160.408 293.694L166.348 290.264C166.578 290.124 166.568 289.924 166.348 289.794V289.754ZM189.748 237.464C189.867 237.526 189.999 237.558 190.133 237.558C190.267 237.558 190.399 237.526 190.518 237.464L195.338 234.684C195.548 234.564 195.528 234.364 195.338 234.234L189.758 231.014C189.638 230.955 189.507 230.924 189.373 230.924C189.24 230.924 189.108 230.955 188.988 231.014L184.168 233.844C183.968 233.964 183.978 234.164 184.168 234.284L189.748 237.464ZM175.638 245.614C175.758 245.673 175.89 245.704 176.023 245.704C176.157 245.704 176.288 245.673 176.408 245.614L181.238 242.834C181.438 242.714 181.428 242.514 181.238 242.384L175.658 239.164C175.538 239.105 175.407 239.074 175.273 239.074C175.14 239.074 175.008 239.105 174.888 239.164L170.068 241.944C169.858 242.064 169.878 242.264 170.068 242.394L175.638 245.614ZM144.368 263.704C144.487 263.766 144.619 263.798 144.753 263.798C144.887 263.798 145.019 263.766 145.138 263.704L149.958 260.914C150.168 260.794 150.158 260.604 149.958 260.474L144.378 257.254C144.259 257.193 144.127 257.161 143.993 257.161C143.859 257.161 143.727 257.193 143.608 257.254L138.778 260.044C138.578 260.164 138.588 260.354 138.778 260.484L144.368 263.704ZM182.698 241.594C182.816 241.653 182.946 241.684 183.078 241.684C183.21 241.684 183.34 241.653 183.458 241.594L188.288 238.814C188.488 238.694 188.478 238.494 188.288 238.364L182.708 235.144C182.589 235.083 182.457 235.051 182.323 235.051C182.189 235.051 182.057 235.083 181.938 235.144L177.118 237.924C176.908 238.044 176.928 238.244 177.118 238.374L182.698 241.594ZM168.588 249.734C168.707 249.796 168.839 249.828 168.973 249.828C169.107 249.828 169.239 249.796 169.358 249.734L174.188 246.954C174.388 246.834 174.378 246.634 174.188 246.504L168.608 243.284C168.488 243.225 168.357 243.194 168.223 243.194C168.09 243.194 167.958 243.225 167.838 243.284L163.018 246.064C162.808 246.184 162.818 246.384 163.018 246.514L168.588 249.734ZM170.218 290.324C170.098 290.265 169.967 290.234 169.833 290.234C169.7 290.234 169.568 290.265 169.448 290.324L162.028 294.594C161.828 294.714 161.838 294.914 162.028 295.044L167.608 298.264C167.727 298.326 167.859 298.358 167.993 298.358C168.127 298.358 168.259 298.326 168.378 298.264L175.798 293.984C176.008 293.864 175.988 293.664 175.798 293.534L170.218 290.324ZM158.468 255.594C158.588 255.653 158.72 255.684 158.853 255.684C158.987 255.684 159.118 255.653 159.238 255.594L164.068 252.804C164.268 252.684 164.258 252.484 164.068 252.364L158.488 249.144C158.369 249.083 158.237 249.051 158.103 249.051C157.969 249.051 157.837 249.083 157.718 249.144L152.898 251.934C152.688 252.044 152.698 252.244 152.898 252.374L158.468 255.594ZM151.418 259.594C151.537 259.656 151.669 259.688 151.803 259.688C151.937 259.688 152.069 259.656 152.188 259.594L157.018 256.804C157.218 256.684 157.208 256.484 157.018 256.364L151.438 253.144C151.319 253.083 151.187 253.051 151.053 253.051C150.919 253.051 150.787 253.083 150.668 253.144L145.848 255.934C145.638 256.044 145.648 256.244 145.848 256.374L151.418 259.594ZM300.858 214.894C300.739 214.833 300.607 214.801 300.473 214.801C300.339 214.801 300.207 214.833 300.088 214.894L288.168 221.734C287.968 221.854 287.978 222.054 288.168 222.184L293.748 225.404C293.868 225.463 294 225.494 294.133 225.494C294.267 225.494 294.398 225.463 294.518 225.404L306.458 218.594C306.668 218.474 306.658 218.274 306.458 218.144L300.858 214.894ZM285.268 223.894C285.149 223.833 285.017 223.801 284.883 223.801C284.749 223.801 284.617 223.833 284.498 223.894L279.678 226.674C279.468 226.794 279.478 226.994 279.678 227.124L285.258 230.344C285.378 230.403 285.51 230.434 285.643 230.434C285.777 230.434 285.908 230.403 286.028 230.344L290.858 227.564C291.058 227.444 291.048 227.244 290.858 227.114L285.268 223.894ZM189.758 276.744L194.578 273.954C194.788 273.834 194.768 273.634 194.578 273.514L189.008 270.284C188.888 270.225 188.757 270.194 188.623 270.194C188.49 270.194 188.358 270.225 188.238 270.284L183.408 273.064C183.208 273.184 183.218 273.384 183.408 273.514L188.988 276.734C189.107 276.795 189.238 276.827 189.372 276.829C189.506 276.831 189.638 276.802 189.758 276.744V276.744ZM271.168 232.034C271.048 231.975 270.917 231.944 270.783 231.944C270.65 231.944 270.518 231.975 270.398 232.034L265.568 234.814C265.368 234.934 265.378 235.134 265.568 235.264L271.148 238.484C271.267 238.546 271.399 238.578 271.533 238.578C271.667 238.578 271.799 238.546 271.918 238.484L276.738 235.704C276.948 235.584 276.938 235.384 276.738 235.254L271.168 232.034ZM307.908 210.824C307.788 210.765 307.657 210.734 307.523 210.734C307.39 210.734 307.258 210.765 307.138 210.824L302.318 213.594C302.108 213.714 302.118 213.914 302.318 214.034L307.898 217.264C308.018 217.323 308.15 217.354 308.283 217.354C308.417 217.354 308.548 217.323 308.668 217.264L313.498 214.484C313.698 214.364 313.688 214.164 313.498 214.034L307.908 210.824ZM320.538 209.974L306.988 202.154C306.869 202.093 306.737 202.061 306.603 202.061C306.469 202.061 306.337 202.093 306.218 202.154L301.398 204.944C301.188 205.064 301.198 205.264 301.398 205.384L314.948 213.204C315.067 213.266 315.199 213.298 315.333 213.298C315.467 213.298 315.599 213.266 315.718 213.204L320.548 210.414C320.768 210.304 320.758 210.104 320.538 209.974ZM244.818 247.254C244.699 247.193 244.567 247.161 244.433 247.161C244.299 247.161 244.167 247.193 244.048 247.254L238.108 250.684C237.908 250.804 237.918 251.004 238.108 251.124L243.688 254.344C243.807 254.406 243.939 254.438 244.073 254.438C244.207 254.438 244.339 254.406 244.458 254.344L250.398 250.914C250.598 250.794 250.588 250.594 250.398 250.474L244.818 247.254ZM262.628 236.964C262.509 236.903 262.377 236.871 262.243 236.871C262.109 236.871 261.977 236.903 261.858 236.964L254.438 241.244C254.238 241.364 254.248 241.564 254.438 241.684L260.018 244.914C260.138 244.973 260.27 245.004 260.403 245.004C260.537 245.004 260.668 244.973 260.788 244.914L268.208 240.634C268.408 240.514 268.398 240.314 268.208 240.184L262.628 236.964ZM228.488 256.674C228.368 256.615 228.237 256.584 228.103 256.584C227.97 256.584 227.838 256.615 227.718 256.674L188.008 279.594C187.808 279.714 187.818 279.914 188.008 280.044L193.588 283.264C193.708 283.323 193.84 283.354 193.973 283.354C194.107 283.354 194.238 283.323 194.358 283.264L234.068 260.334C234.268 260.214 234.258 260.014 234.068 259.884L228.488 256.674ZM186.548 280.894C186.429 280.833 186.297 280.801 186.163 280.801C186.029 280.801 185.897 280.833 185.778 280.894L179.848 284.324C179.638 284.444 179.648 284.644 179.848 284.764L185.428 287.984C185.547 288.046 185.679 288.078 185.813 288.078C185.947 288.078 186.079 288.046 186.198 287.984L192.168 284.594C192.368 284.474 192.358 284.274 192.168 284.154L186.548 280.894ZM236.648 251.964C236.528 251.905 236.397 251.874 236.263 251.874C236.13 251.874 235.998 251.905 235.878 251.964L229.948 255.394C229.738 255.514 229.748 255.714 229.948 255.844L235.528 259.064C235.648 259.123 235.78 259.154 235.913 259.154C236.047 259.154 236.178 259.123 236.298 259.064L242.238 255.634C242.448 255.524 242.428 255.324 242.238 255.194L236.648 251.964ZM178.388 285.594C178.268 285.535 178.137 285.504 178.003 285.504C177.87 285.504 177.738 285.535 177.618 285.594L171.678 289.024C171.478 289.144 171.488 289.344 171.678 289.474L177.258 292.694C177.378 292.753 177.51 292.784 177.643 292.784C177.777 292.784 177.908 292.753 178.028 292.694L183.958 289.274C184.168 289.154 184.158 288.954 183.958 288.824L178.388 285.594ZM252.978 242.524C252.858 242.465 252.727 242.434 252.593 242.434C252.46 242.434 252.328 242.465 252.208 242.524L246.278 245.944C246.068 246.064 246.078 246.264 246.278 246.394L251.858 249.614C251.978 249.673 252.11 249.704 252.243 249.704C252.377 249.704 252.508 249.673 252.628 249.614L258.568 246.184C258.778 246.064 258.758 245.864 258.568 245.734L252.978 242.524ZM278.218 227.954C278.099 227.893 277.967 227.861 277.833 227.861C277.699 227.861 277.567 227.893 277.448 227.954L272.628 230.734C272.418 230.854 272.428 231.054 272.628 231.184L278.208 234.404C278.328 234.463 278.46 234.494 278.593 234.494C278.727 234.494 278.858 234.463 278.978 234.404L283.808 231.624C284.008 231.504 283.998 231.304 283.808 231.174L278.218 227.954ZM293.668 216.734L298.488 213.954C298.698 213.834 298.688 213.634 298.488 213.504L292.908 210.284C292.788 210.225 292.657 210.194 292.523 210.194C292.39 210.194 292.258 210.225 292.138 210.284L287.308 213.074C287.108 213.194 287.118 213.394 287.308 213.514L292.888 216.744C293.009 216.805 293.143 216.837 293.278 216.837C293.414 216.837 293.547 216.805 293.668 216.744V216.734ZM262.168 216.594L266.998 213.804C267.198 213.684 267.188 213.484 266.998 213.364L261.418 210.144C261.299 210.083 261.167 210.051 261.033 210.051C260.899 210.051 260.767 210.083 260.648 210.144L255.828 212.934C255.618 213.054 255.638 213.244 255.828 213.374L261.398 216.594C261.517 216.656 261.649 216.688 261.783 216.688C261.917 216.688 262.049 216.656 262.168 216.594ZM246.168 244.224L260.268 236.084C260.468 235.964 260.458 235.764 260.268 235.634L254.688 232.414C254.568 232.355 254.437 232.324 254.303 232.324C254.17 232.324 254.038 232.355 253.918 232.414L239.818 240.564C239.618 240.674 239.628 240.874 239.818 241.004L245.398 244.224C245.521 244.278 245.655 244.302 245.789 244.293C245.923 244.284 246.053 244.243 246.168 244.174V244.224ZM285.848 220.854C285.968 220.913 286.1 220.944 286.233 220.944C286.367 220.944 286.498 220.913 286.618 220.854L291.438 218.074C291.648 217.954 291.638 217.754 291.438 217.624L285.858 214.404C285.739 214.343 285.607 214.311 285.473 214.311C285.339 214.311 285.207 214.343 285.088 214.404L280.258 217.184C280.058 217.304 280.068 217.504 280.258 217.634L285.848 220.854ZM278.648 216.264L283.468 213.484C283.678 213.364 283.668 213.164 283.468 213.034L277.888 209.814C277.768 209.755 277.637 209.724 277.503 209.724C277.37 209.724 277.238 209.755 277.118 209.814L272.288 212.604C272.088 212.724 272.098 212.924 272.288 213.044L277.868 216.274C277.994 216.326 278.13 216.347 278.265 216.337C278.401 216.326 278.532 216.284 278.648 216.214V216.264ZM239.118 248.264L243.938 245.474C244.148 245.354 244.128 245.164 243.938 245.034L238.358 241.814C238.239 241.753 238.107 241.721 237.973 241.721C237.839 241.721 237.707 241.753 237.588 241.814L232.738 244.594C232.528 244.714 232.548 244.904 232.738 245.034L238.318 248.254C238.448 248.328 238.595 248.366 238.745 248.365C238.894 248.363 239.04 248.321 239.168 248.244L239.118 248.264ZM270.258 229.824C270.378 229.883 270.51 229.914 270.643 229.914C270.777 229.914 270.908 229.883 271.028 229.824L275.858 227.044C276.058 226.924 276.048 226.724 275.858 226.594L270.278 223.374C270.158 223.315 270.027 223.284 269.893 223.284C269.76 223.284 269.628 223.315 269.508 223.374L264.688 226.164C264.478 226.284 264.488 226.484 264.688 226.604L270.258 229.824ZM203.858 268.594L208.678 265.814C208.888 265.694 208.878 265.494 208.678 265.364L203.098 262.144C202.978 262.085 202.847 262.054 202.713 262.054C202.58 262.054 202.448 262.085 202.328 262.144L197.498 264.924C197.298 265.044 197.308 265.244 197.498 265.374L203.078 268.594C203.199 268.655 203.333 268.687 203.468 268.687C203.604 268.687 203.737 268.655 203.858 268.594V268.594ZM210.908 264.524L215.738 261.744C215.938 261.624 215.928 261.424 215.738 261.294L210.168 258.074C210.049 258.013 209.917 257.981 209.783 257.981C209.649 257.981 209.517 258.013 209.398 258.074L204.568 260.854C204.368 260.974 204.378 261.174 204.568 261.304L210.148 264.524C210.267 264.582 210.397 264.612 210.528 264.612C210.66 264.612 210.79 264.582 210.908 264.524ZM196.808 272.664L201.628 269.884C201.838 269.764 201.828 269.564 201.628 269.434L196.058 266.214C195.938 266.155 195.807 266.124 195.673 266.124C195.54 266.124 195.408 266.155 195.288 266.214L190.458 268.994C190.258 269.114 190.268 269.314 190.458 269.444L196.038 272.664C196.157 272.726 196.289 272.758 196.423 272.758C196.557 272.758 196.689 272.726 196.808 272.664V272.664ZM225.008 256.384L229.838 253.604C230.038 253.484 230.028 253.284 229.838 253.154L224.258 249.934C224.138 249.875 224.007 249.844 223.873 249.844C223.74 249.844 223.608 249.875 223.488 249.934L218.668 252.724C218.458 252.844 218.468 253.044 218.668 253.164L224.248 256.384C224.366 256.444 224.496 256.475 224.628 256.475C224.76 256.475 224.89 256.444 225.008 256.384V256.384ZM218.008 260.454L222.838 257.674C223.038 257.554 223.028 257.354 222.838 257.224L217.168 254.004C217.049 253.943 216.917 253.911 216.783 253.911C216.649 253.911 216.517 253.943 216.398 254.004L211.578 256.784C211.368 256.904 211.378 257.104 211.578 257.224L217.158 260.454C217.282 260.518 217.419 260.552 217.558 260.552C217.697 260.552 217.835 260.518 217.958 260.454H218.008ZM232.108 252.314L236.938 249.524C237.138 249.414 237.128 249.214 236.938 249.084L231.358 245.864C231.239 245.803 231.107 245.771 230.973 245.771C230.839 245.771 230.707 245.803 230.588 245.864L225.688 248.594C225.478 248.714 225.498 248.914 225.688 249.034L231.258 252.254C231.376 252.33 231.511 252.375 231.651 252.386C231.79 252.396 231.93 252.372 232.058 252.314H232.108ZM264.368 192.084C264.487 192.146 264.619 192.178 264.753 192.178C264.887 192.178 265.019 192.146 265.138 192.084L269.968 189.294C270.168 189.184 270.158 188.984 269.968 188.854L268.488 187.994C268.368 187.935 268.237 187.904 268.103 187.904C267.97 187.904 267.838 187.935 267.718 187.994L262.888 190.774C262.688 190.894 262.698 191.094 262.888 191.224L264.368 192.084ZM229.678 214.484C229.797 214.546 229.929 214.578 230.063 214.578C230.197 214.578 230.329 214.546 230.448 214.484L235.268 211.704C235.478 211.584 235.468 211.384 235.268 211.254L229.688 208.034C229.568 207.975 229.437 207.944 229.303 207.944C229.17 207.944 229.038 207.975 228.918 208.034L224.088 210.814C223.888 210.934 223.898 211.134 224.088 211.264L229.678 214.484ZM243.778 206.344C243.898 206.403 244.03 206.434 244.163 206.434C244.297 206.434 244.428 206.403 244.548 206.344L249.378 203.564C249.578 203.444 249.568 203.244 249.378 203.114L243.798 199.894C243.679 199.833 243.547 199.801 243.413 199.801C243.279 199.801 243.147 199.833 243.028 199.894L238.168 202.674C237.958 202.794 237.968 202.994 238.168 203.124L243.778 206.344ZM221.068 219.454C221.188 219.513 221.32 219.544 221.453 219.544C221.587 219.544 221.718 219.513 221.838 219.454L226.658 216.664C226.868 216.544 226.858 216.344 226.658 216.224L221.078 212.994C220.958 212.935 220.827 212.904 220.693 212.904C220.56 212.904 220.428 212.935 220.308 212.994L215.478 215.774C215.278 215.894 215.288 216.094 215.478 216.224L221.068 219.454ZM236.728 210.454C236.848 210.513 236.98 210.544 237.113 210.544C237.247 210.544 237.378 210.513 237.498 210.454L242.328 207.674C242.528 207.554 242.518 207.354 242.328 207.224L236.748 204.004C236.628 203.945 236.497 203.914 236.363 203.914C236.23 203.914 236.098 203.945 235.978 204.004L231.158 206.784C230.948 206.904 230.958 207.104 231.158 207.234L236.728 210.454ZM206.918 227.594C207.037 227.656 207.169 227.688 207.303 227.688C207.437 227.688 207.569 227.656 207.688 227.594L212.508 224.804C212.718 224.684 212.698 224.484 212.508 224.364L206.938 221.144C206.819 221.083 206.687 221.051 206.553 221.051C206.419 221.051 206.287 221.083 206.168 221.144L201.338 223.934C201.138 224.044 201.148 224.244 201.338 224.374L206.918 227.594ZM213.968 223.524C214.088 223.583 214.22 223.614 214.353 223.614C214.487 223.614 214.618 223.583 214.738 223.524L219.558 220.734C219.768 220.614 219.758 220.414 219.558 220.294L213.988 217.074C213.869 217.013 213.737 216.981 213.603 216.981C213.469 216.981 213.337 217.013 213.218 217.074L208.388 219.864C208.188 219.974 208.198 220.174 208.388 220.304L213.968 223.524ZM250.218 200.234C250.338 200.293 250.47 200.324 250.603 200.324C250.737 200.324 250.868 200.293 250.988 200.234L255.818 197.454C256.018 197.334 256.008 197.134 255.818 197.004L254.328 196.144C254.208 196.085 254.077 196.054 253.943 196.054C253.81 196.054 253.678 196.085 253.558 196.144L248.738 198.924C248.528 199.044 248.548 199.244 248.738 199.374L250.218 200.234ZM271.378 188.014C271.495 188.076 271.626 188.108 271.758 188.108C271.891 188.108 272.021 188.076 272.138 188.014L276.968 185.224C277.168 185.104 277.158 184.914 276.968 184.784L275.488 183.924C275.369 183.863 275.237 183.831 275.103 183.831C274.969 183.831 274.837 183.863 274.718 183.924L269.888 186.704C269.688 186.824 269.698 187.024 269.888 187.154L271.378 188.014ZM283.088 194.784C283.208 194.843 283.34 194.874 283.473 194.874C283.607 194.874 283.738 194.843 283.858 194.784L288.688 191.994C288.888 191.874 288.878 191.674 288.688 191.554L283.108 188.324C282.988 188.265 282.857 188.234 282.723 188.234C282.59 188.234 282.458 188.265 282.338 188.324L277.518 191.104C277.308 191.224 277.328 191.424 277.518 191.554L283.088 194.784ZM300.718 212.674L305.548 209.884C305.748 209.774 305.738 209.574 305.548 209.444L299.968 206.224C299.848 206.165 299.717 206.134 299.583 206.134C299.45 206.134 299.318 206.165 299.198 206.224L294.378 209.014C294.168 209.134 294.178 209.334 294.378 209.454L299.958 212.674C300.076 212.734 300.206 212.765 300.338 212.765C300.47 212.765 300.6 212.734 300.718 212.674V212.674ZM257.268 196.164C257.388 196.223 257.52 196.254 257.653 196.254C257.787 196.254 257.918 196.223 258.038 196.164L262.868 193.384C263.068 193.264 263.058 193.064 262.868 192.934L261.378 192.074C261.258 192.015 261.127 191.984 260.993 191.984C260.86 191.984 260.728 192.015 260.608 192.074L255.788 194.854C255.588 194.974 255.598 195.174 255.788 195.304L257.268 196.164ZM199.868 231.664C199.987 231.726 200.119 231.758 200.253 231.758C200.387 231.758 200.519 231.726 200.638 231.664L205.458 228.874C205.658 228.754 205.648 228.564 205.458 228.434L199.878 225.214C199.759 225.153 199.627 225.121 199.493 225.121C199.359 225.121 199.227 225.153 199.108 225.214L194.288 228.004C194.088 228.124 194.098 228.314 194.288 228.444L199.868 231.664Z" fill="#455A64"/>
<path d="M228.538 275.494L281.338 245.004L313.838 263.764L261.028 294.254L228.538 275.494Z" fill="#263238"/>
<path d="M111.168 121.854L268.528 31.0043C271.598 29.2243 274.118 30.6843 274.118 34.2343V156.104C274.068 157.006 273.806 157.883 273.355 158.664C272.903 159.446 272.274 160.11 271.518 160.604L110.168 253.764C108.738 254.584 107.568 253.914 107.568 252.264V128.084C107.64 126.837 108.003 125.624 108.628 124.542C109.253 123.46 110.123 122.539 111.168 121.854Z" fill="#F5F5F5"/>
<path d="M274.168 37.1543V34.2343C274.168 30.6843 271.648 29.2343 268.578 31.0043L111.168 121.854C110.123 122.539 109.253 123.46 108.628 124.542C108.003 125.624 107.64 126.837 107.568 128.084V133.314L274.168 37.1543Z" fill="#0084FF"/>
<path d="M250.688 43.8044C250.126 44.17 249.659 44.663 249.324 45.2434C248.988 45.8237 248.794 46.475 248.758 47.1444C248.758 48.3744 249.618 48.8744 250.688 48.2544C251.248 47.8898 251.714 47.3981 252.047 46.8194C252.381 46.2407 252.573 45.5914 252.608 44.9244C252.608 43.6944 251.748 43.1944 250.688 43.8044Z" fill="white"/>
<path d="M258.328 39.3943C257.768 39.761 257.303 40.2545 256.969 40.8348C256.636 41.4151 256.443 42.0659 256.408 42.7343C256.408 43.9643 257.268 44.4543 258.328 43.8443C258.89 43.4786 259.358 42.9856 259.693 42.4052C260.028 41.8249 260.222 41.1736 260.258 40.5043C260.258 39.2743 259.398 38.7743 258.328 39.3943Z" fill="white"/>
<path d="M265.978 34.9743C265.418 35.3417 264.952 35.8351 264.617 36.4151C264.281 36.9951 264.087 37.6455 264.048 38.3143C264.048 39.5443 264.918 40.0443 265.978 39.4243C266.539 39.0602 267.006 38.5689 267.342 37.9903C267.677 37.4116 267.871 36.762 267.908 36.0943C267.908 34.8643 267.038 34.3643 265.978 34.9743Z" fill="white"/>
<path d="M146.426 192.981L140.303 189.446L125.308 215.418L131.431 218.953L146.426 192.981Z" fill="#37474F"/>
<path d="M146.438 192.973L143.381 191.208L128.386 217.181L131.443 218.946L146.438 192.973Z" fill="#263238"/>
<path d="M108.868 266.134C106.078 270.984 92.8682 263.284 95.6482 258.504L130.098 204.774C130.191 204.629 130.336 204.525 130.504 204.484C130.672 204.443 130.849 204.468 130.998 204.554L137.918 208.554C138.067 208.638 138.178 208.777 138.226 208.942C138.275 209.106 138.257 209.282 138.178 209.434L108.868 266.134Z" fill="#0084FF"/>
<path opacity="0.1" d="M108.868 266.134L138.168 209.434C138.247 209.282 138.265 209.106 138.216 208.942C138.168 208.777 138.057 208.638 137.908 208.554L134.758 206.734L101.168 266.444C104.228 267.954 107.608 268.324 108.868 266.134Z" fill="black"/>
<path d="M210.168 139.644C210.168 139.234 210.168 138.834 210.108 138.434C210.048 138.034 210.108 137.644 210.018 137.254C209.928 136.864 210.018 136.734 209.938 136.474C209.868 135.794 209.768 135.124 209.658 134.474C209.608 134.184 209.558 133.884 209.498 133.594C209.438 133.304 209.388 133.044 209.328 132.774C209.158 132.034 208.978 131.314 208.768 130.624C208.658 130.294 208.558 129.964 208.448 129.624C208.427 129.576 208.41 129.526 208.398 129.474C208.278 129.154 208.168 128.844 208.048 128.544C207.928 128.244 207.768 127.844 207.608 127.544C207.448 127.244 207.388 127.054 207.258 126.814C207.186 126.634 207.099 126.46 206.998 126.294C206.898 126.084 206.788 125.874 206.668 125.674C206.548 125.474 206.618 125.574 206.588 125.534C206.558 125.494 206.378 125.174 206.268 124.994C206.158 124.814 206.118 124.764 206.048 124.654C205.536 123.847 204.961 123.081 204.328 122.364L204.008 122.004L203.738 121.724C203.628 121.604 203.508 121.494 203.388 121.374C203.074 121.044 202.74 120.734 202.388 120.444C202.218 120.294 202.038 120.154 201.858 120.024L201.308 119.624C201.022 119.415 200.725 119.221 200.418 119.044L200.178 118.894H200.128L185.958 110.714L185.878 110.664C183.16 109.148 180.091 108.372 176.978 108.414C172.338 108.414 167.098 109.934 161.548 113.134C142.488 124.134 127.028 150.914 127.028 172.934C127.028 183.934 130.868 191.634 137.078 195.254H137.138L151.318 203.424H151.378L151.548 203.514C151.814 203.671 152.088 203.815 152.368 203.944C152.708 204.114 153.058 204.264 153.368 204.404C153.678 204.544 153.998 204.654 154.318 204.754L154.828 204.904C155.007 204.973 155.191 205.026 155.378 205.064C155.562 205.12 155.749 205.167 155.938 205.204C156.073 205.244 156.21 205.274 156.348 205.294C156.588 205.344 156.848 205.394 157.098 205.424C157.154 205.434 157.212 205.434 157.268 205.424C157.568 205.478 157.868 205.518 158.168 205.544C163.308 206.084 169.288 204.634 175.688 200.944C194.758 189.944 210.218 163.154 210.218 141.144C210.168 140.684 210.168 140.164 210.168 139.644ZM187.038 124.074C187.787 126.811 188.154 129.637 188.128 132.474C188.128 151.894 173.918 176.474 157.128 186.214C154.674 187.673 152.024 188.774 149.258 189.484C148.514 186.744 148.147 183.914 148.168 181.074C148.168 161.654 162.378 137.074 179.168 127.334C181.613 125.881 184.253 124.783 187.008 124.074H187.038Z" fill="#0084FF"/>
<path opacity="0.1" d="M150.738 203.144L136.968 195.204C130.758 191.574 126.918 183.854 126.918 172.894C126.918 163.074 129.998 152.314 135.088 142.434L149.268 150.594C144.168 160.474 141.098 171.234 141.098 181.054C141.098 191.814 144.758 199.424 150.738 203.144Z" fill="black"/>
<path opacity="0.4" d="M210.168 139.644C210.168 139.234 210.168 138.834 210.108 138.434C210.048 138.034 210.108 137.644 210.018 137.254C209.928 136.864 210.018 136.734 209.938 136.474C209.868 135.794 209.768 135.124 209.658 134.474C209.608 134.184 209.558 133.884 209.498 133.594C209.438 133.304 209.388 133.044 209.328 132.774C209.158 132.034 208.978 131.314 208.768 130.624C208.658 130.294 208.558 129.964 208.448 129.624C208.427 129.576 208.41 129.526 208.398 129.474C208.278 129.154 208.168 128.844 208.048 128.544C207.928 128.244 207.768 127.844 207.608 127.544C207.448 127.244 207.388 127.054 207.258 126.814C207.186 126.634 207.099 126.46 206.998 126.294C206.898 126.084 206.788 125.874 206.668 125.674C206.548 125.474 206.618 125.574 206.588 125.534C206.558 125.494 206.378 125.174 206.268 124.994C206.158 124.814 206.118 124.764 206.048 124.654C205.536 123.847 204.961 123.081 204.328 122.364L204.008 122.004L203.738 121.724C203.628 121.604 203.508 121.494 203.388 121.374C203.074 121.044 202.74 120.734 202.388 120.444C202.218 120.294 202.038 120.154 201.858 120.024L201.308 119.624C201.022 119.415 200.725 119.221 200.418 119.044C194.148 115.234 185.418 115.684 175.708 121.274C156.638 132.274 141.178 159.054 141.178 181.074C141.178 192.224 145.178 200.014 151.528 203.554C151.794 203.711 152.068 203.855 152.348 203.984C152.688 204.154 153.038 204.304 153.348 204.444C153.658 204.584 153.978 204.694 154.298 204.794L154.808 204.944C154.987 205.013 155.171 205.066 155.358 205.104C155.542 205.16 155.729 205.207 155.918 205.244C156.053 205.284 156.19 205.314 156.328 205.334C156.568 205.384 156.828 205.434 157.078 205.464C157.134 205.474 157.192 205.474 157.248 205.464C157.548 205.518 157.848 205.558 158.148 205.584C163.288 206.124 169.268 204.674 175.668 200.984C194.738 189.984 210.198 163.194 210.198 141.184C210.168 140.684 210.168 140.164 210.168 139.644ZM172.168 194.954C167.888 197.424 163.768 198.724 160.248 198.724C153.638 198.724 150.598 194.214 149.248 189.484C148.504 186.744 148.137 183.914 148.158 181.074C148.158 161.654 162.368 137.074 179.158 127.334C181.613 125.878 184.263 124.78 187.028 124.074C188.337 123.75 189.68 123.579 191.028 123.564C201.958 123.564 203.128 135.904 203.128 141.214C203.168 160.594 188.958 185.244 172.168 194.954Z" fill="white"/>
<path opacity="0.1" d="M203.168 141.214C203.168 160.634 188.968 185.214 172.168 194.954C167.888 197.424 163.768 198.724 160.248 198.724C153.638 198.724 150.598 194.214 149.248 189.484C152.014 188.774 154.664 187.673 157.118 186.214C173.938 176.504 188.118 151.894 188.118 132.474C188.144 129.637 187.777 126.811 187.028 124.074C188.337 123.75 189.68 123.579 191.028 123.564C201.988 123.594 203.168 135.904 203.168 141.214Z" fill="black"/>
<path opacity="0.7" d="M197.168 137.824C197.168 157.244 182.968 181.824 166.168 191.564C161.888 194.034 157.768 195.334 154.248 195.334C153.548 195.336 152.849 195.279 152.158 195.164C150.807 193.495 149.822 191.559 149.268 189.484C148.524 186.744 148.157 183.914 148.178 181.074C148.178 161.654 162.388 137.074 179.178 127.334C181.633 125.878 184.283 124.78 187.048 124.074C188.357 123.75 189.7 123.579 191.048 123.564C191.752 123.563 192.454 123.619 193.148 123.734C196.608 127.804 197.168 134.334 197.168 137.824Z" fill="white"/>
<path d="M221.338 117.594V139.734C221.338 141.394 222.508 142.064 223.938 141.234L369.038 57.4643C369.794 56.9705 370.423 56.3059 370.875 55.5242C371.326 54.7426 371.588 53.8657 371.638 52.9643V30.7943C371.638 29.1343 370.468 28.4643 369.038 29.2943L223.938 113.064C223.179 113.562 222.548 114.231 222.096 115.018C221.645 115.805 221.385 116.688 221.338 117.594Z" fill="#E6E6E6"/>
<path d="M223.938 113.064L249.778 98.1543V126.294L223.938 141.204C222.508 142.034 221.338 141.364 221.338 139.704V117.594C221.385 116.688 221.645 115.805 222.096 115.018C222.548 114.231 223.179 113.562 223.938 113.064Z" fill="#0084FF"/>
<path d="M241.228 110.434C239.598 109.494 237.538 109.644 235.428 110.864C233.423 112.149 231.755 113.895 230.563 115.957C229.371 118.018 228.691 120.336 228.578 122.714C228.508 124.256 228.994 125.771 229.948 126.984L227.168 131.744C226.987 132.085 226.943 132.482 227.046 132.854C227.148 133.226 227.388 133.544 227.718 133.744C227.947 133.873 228.205 133.942 228.468 133.944C228.732 133.944 228.991 133.875 229.219 133.744C229.447 133.612 229.637 133.422 229.768 133.194L232.518 128.434C232.815 128.49 233.116 128.52 233.418 128.524C234.646 128.502 235.846 128.157 236.898 127.524C238.9 126.237 240.565 124.49 241.755 122.428C242.944 120.367 243.624 118.052 243.738 115.674C243.768 113.244 242.868 111.384 241.228 110.434ZM235.428 124.934C235.077 125.312 234.608 125.56 234.098 125.637C233.587 125.713 233.066 125.615 232.619 125.357C232.172 125.099 231.826 124.698 231.637 124.218C231.448 123.738 231.427 123.208 231.578 122.714C231.695 120.864 232.239 119.066 233.167 117.461C234.095 115.856 235.383 114.488 236.928 113.464C237.528 113.082 238.218 112.865 238.928 112.834C239.221 112.823 239.512 112.892 239.768 113.034C240.145 113.356 240.434 113.768 240.608 114.231C240.783 114.694 240.838 115.194 240.768 115.684C240.653 117.534 240.111 119.331 239.184 120.936C238.258 122.541 236.972 123.909 235.428 124.934Z" fill="white"/>
</svg>
